<?xml version="1.0" encoding="UTF-8"?>
<svg id="_레이어_1" data-name="레이어 1" xmlns="http://www.w3.org/2000/svg" xmlns:xlink="http://www.w3.org/1999/xlink" viewBox="0 0 470.88 129">
  <defs>
    <style>
      .cls-1 {
        clip-path: url(#clippath-51);
      }

      .cls-2 {
        clip-path: url(#clippath-34);
      }

      .cls-3 {
        clip-path: url(#clippath-38);
      }

      .cls-4 {
        clip-path: url(#clippath-21);
      }

      .cls-5 {
        clip-path: url(#clippath-6);
      }

      .cls-6 {
        clip-path: url(#clippath-7);
      }

      .cls-7 {
        clip-path: url(#clippath-17);
      }

      .cls-8 {
        clip-path: url(#clippath-31);
      }

      .cls-9, .cls-10, .cls-11, .cls-12, .cls-13, .cls-14, .cls-15, .cls-16, .cls-17, .cls-18, .cls-19, .cls-20 {
        fill: none;
      }

      .cls-9, .cls-10, .cls-11, .cls-13, .cls-15, .cls-16, .cls-18, .cls-19, .cls-20 {
        stroke-linejoin: round;
      }

      .cls-9, .cls-11, .cls-15, .cls-18 {
        stroke: #ea5514;
      }

      .cls-9, .cls-13, .cls-16, .cls-17, .cls-18, .cls-19 {
        stroke-width: .96px;
      }

      .cls-21 {
        letter-spacing: 0em;
      }

      .cls-22 {
        clip-path: url(#clippath-15);
      }

      .cls-23 {
        clip-path: url(#clippath-33);
      }

      .cls-24 {
        fill: #231815;
      }

      .cls-25 {
        clip-path: url(#clippath-61);
      }

      .cls-26 {
        clip-path: url(#clippath-18);
      }

      .cls-27 {
        clip-path: url(#clippath-47);
      }

      .cls-28 {
        clip-path: url(#clippath-4);
      }

      .cls-29 {
        letter-spacing: -.04em;
      }

      .cls-30 {
        clip-path: url(#clippath-22);
      }

      .cls-31 {
        letter-spacing: 0em;
      }

      .cls-32 {
        fill: #ea5514;
      }

      .cls-33 {
        clip-path: url(#clippath-23);
      }

      .cls-10 {
        stroke: #1b448f;
      }

      .cls-10, .cls-11, .cls-15 {
        stroke-width: 1.26px;
      }

      .cls-10, .cls-11, .cls-15, .cls-16, .cls-18, .cls-20 {
        stroke-linecap: round;
      }

      .cls-34 {
        font-family: ArialNarrow, Arial;
      }

      .cls-34, .cls-35 {
        font-size: 9.98px;
      }

      .cls-36 {
        letter-spacing: 0em;
      }

      .cls-37 {
        clip-path: url(#clippath-54);
      }

      .cls-38 {
        clip-path: url(#clippath-9);
      }

      .cls-39 {
        clip-path: url(#clippath-10);
      }

      .cls-40 {
        clip-path: url(#clippath-42);
      }

      .cls-41, .cls-35 {
        font-family: ArialNarrow-Bold, Arial;
        font-weight: 700;
      }

      .cls-41, .cls-42 {
        font-size: 9.96px;
      }

      .cls-43 {
        clip-path: url(#clippath-59);
      }

      .cls-44 {
        fill: #fff;
      }

      .cls-11 {
        stroke-dasharray: 2.1 2.1;
      }

      .cls-45 {
        clip-path: url(#clippath-43);
      }

      .cls-46 {
        clip-path: url(#clippath-64);
      }

      .cls-47 {
        clip-path: url(#clippath-25);
      }

      .cls-48 {
        letter-spacing: 0em;
      }

      .cls-49 {
        clip-path: url(#clippath-27);
      }

      .cls-50 {
        letter-spacing: 0em;
      }

      .cls-51 {
        fill: #f39800;
      }

      .cls-52 {
        fill: #f8b62d;
      }

      .cls-53 {
        clip-path: url(#clippath-60);
      }

      .cls-54 {
        clip-path: url(#clippath-11);
      }

      .cls-55 {
        clip-path: url(#clippath-57);
      }

      .cls-56 {
        clip-path: url(#clippath-36);
      }

      .cls-57 {
        letter-spacing: 0em;
      }

      .cls-58 {
        clip-path: url(#clippath-35);
      }

      .cls-59 {
        clip-path: url(#clippath-48);
      }

      .cls-60 {
        clip-path: url(#clippath-28);
      }

      .cls-13, .cls-16 {
        stroke: #1a448f;
      }

      .cls-61 {
        clip-path: url(#clippath-1);
      }

      .cls-62 {
        clip-path: url(#clippath-56);
      }

      .cls-63 {
        letter-spacing: 0em;
      }

      .cls-64 {
        clip-path: url(#clippath-45);
      }

      .cls-65 {
        clip-path: url(#clippath-46);
      }

      .cls-66 {
        clip-path: url(#clippath-40);
      }

      .cls-67 {
        clip-path: url(#clippath-5);
      }

      .cls-68 {
        clip-path: url(#clippath-20);
      }

      .cls-69 {
        clip-path: url(#clippath-8);
      }

      .cls-70 {
        clip-path: url(#clippath-52);
      }

      .cls-71 {
        clip-path: url(#clippath-41);
      }

      .cls-72 {
        clip-path: url(#clippath-3);
      }

      .cls-73 {
        clip-path: url(#clippath-26);
      }

      .cls-74 {
        letter-spacing: 0em;
      }

      .cls-75 {
        letter-spacing: 0em;
      }

      .cls-76 {
        clip-path: url(#clippath-12);
      }

      .cls-77 {
        clip-path: url(#clippath-50);
      }

      .cls-78 {
        fill: #1a448f;
      }

      .cls-79 {
        letter-spacing: 0em;
      }

      .cls-80 {
        letter-spacing: 0em;
      }

      .cls-81 {
        clip-path: url(#clippath-14);
      }

      .cls-14 {
        clip-rule: evenodd;
      }

      .cls-82 {
        clip-path: url(#clippath-30);
      }

      .cls-83 {
        clip-path: url(#clippath-19);
      }

      .cls-84 {
        fill: #727171;
      }

      .cls-85 {
        clip-path: url(#clippath-32);
      }

      .cls-16, .cls-18 {
        stroke-dasharray: 1.92 1.92;
      }

      .cls-86 {
        clip-path: url(#clippath-55);
      }

      .cls-87 {
        letter-spacing: 0em;
      }

      .cls-88 {
        clip-path: url(#clippath-53);
      }

      .cls-89 {
        clip-path: url(#clippath-39);
      }

      .cls-90 {
        fill-rule: evenodd;
      }

      .cls-17 {
        stroke-miterlimit: 8;
      }

      .cls-17, .cls-19 {
        stroke: #000;
      }

      .cls-91 {
        letter-spacing: 0em;
      }

      .cls-92 {
        clip-path: url(#clippath-16);
      }

      .cls-93 {
        clip-path: url(#clippath-2);
      }

      .cls-94 {
        letter-spacing: 0em;
      }

      .cls-95 {
        clip-path: url(#clippath-29);
      }

      .cls-96 {
        letter-spacing: 0em;
      }

      .cls-97 {
        fill: #1b448f;
      }

      .cls-42 {
        font-family: CambriaMath, 'Cambria Math';
      }

      .cls-98 {
        clip-path: url(#clippath-49);
      }

      .cls-99 {
        clip-path: url(#clippath-37);
      }

      .cls-100 {
        clip-path: url(#clippath-58);
      }

      .cls-101 {
        clip-path: url(#clippath-13);
      }

      .cls-102 {
        clip-path: url(#clippath-24);
      }

      .cls-103 {
        clip-path: url(#clippath);
      }

      .cls-104 {
        fill: #036eb8;
      }

      .cls-20 {
        stroke: #231815;
        stroke-width: 1.18px;
      }

      .cls-105 {
        letter-spacing: 0em;
      }

      .cls-106 {
        clip-path: url(#clippath-44);
      }
    </style>
    <clipPath id="clippath">
      <rect class="cls-12" x="0" width="470.88" height="129"/>
    </clipPath>
    <clipPath id="clippath-1">
      <rect class="cls-12" x="259.68" y="4.68" width="116.52" height="117.84"/>
    </clipPath>
    <clipPath id="clippath-2">
      <rect class="cls-12" x="259.68" y="4.68" width="116.52" height="117.84"/>
    </clipPath>
    <clipPath id="clippath-3">
      <rect class="cls-12" x="260.4" y="5.4" width="115.52" height="116.63"/>
    </clipPath>
    <clipPath id="clippath-4">
      <rect class="cls-12" x="260.4" y="5.4" width="115.52" height="116.63"/>
    </clipPath>
    <clipPath id="clippath-5">
      <rect class="cls-12" x="260.4" y="5.4" width="115.52" height="116.63"/>
    </clipPath>
    <clipPath id="clippath-6">
      <rect class="cls-12" x="260.4" y="5.4" width="115.52" height="116.63"/>
    </clipPath>
    <clipPath id="clippath-7">
      <rect class="cls-12" x="260.4" y="5.4" width="115.52" height="116.63"/>
    </clipPath>
    <clipPath id="clippath-8">
      <rect class="cls-12" x="0" y="0" width="470.88" height="129"/>
    </clipPath>
    <clipPath id="clippath-9">
      <rect class="cls-12" x="0" y="0" width="470.88" height="129"/>
    </clipPath>
    <clipPath id="clippath-10">
      <rect class="cls-12" x="0" y="0" width="470.88" height="129"/>
    </clipPath>
    <clipPath id="clippath-11">
      <rect class="cls-12" x="0" y="0" width="470.88" height="129"/>
    </clipPath>
    <clipPath id="clippath-12">
      <rect class="cls-12" x="0" y="0" width="470.88" height="129"/>
    </clipPath>
    <clipPath id="clippath-13">
      <rect class="cls-12" x="0" y="0" width="470.88" height="129"/>
    </clipPath>
    <clipPath id="clippath-14">
      <rect class="cls-12" x="0" y="0" width="470.88" height="129"/>
    </clipPath>
    <clipPath id="clippath-15">
      <rect class="cls-12" x="0" y="0" width="470.88" height="129"/>
    </clipPath>
    <clipPath id="clippath-16">
      <rect class="cls-12" x="0" y="0" width="470.88" height="129"/>
    </clipPath>
    <clipPath id="clippath-17">
      <rect class="cls-12" x="0" y="0" width="470.88" height="129"/>
    </clipPath>
    <clipPath id="clippath-18">
      <rect class="cls-12" x="0" y="0" width="470.88" height="129"/>
    </clipPath>
    <clipPath id="clippath-19">
      <rect class="cls-12" x="0" y="0" width="470.88" height="129"/>
    </clipPath>
    <clipPath id="clippath-20">
      <rect class="cls-12" x="0" y="0" width="470.88" height="129"/>
    </clipPath>
    <clipPath id="clippath-21">
      <rect class="cls-12" x="0" y="0" width="470.88" height="129"/>
    </clipPath>
    <clipPath id="clippath-22">
      <rect class="cls-12" x="0" y="0" width="470.88" height="129"/>
    </clipPath>
    <clipPath id="clippath-23">
      <rect class="cls-12" x="0" y="0" width="470.88" height="129"/>
    </clipPath>
    <clipPath id="clippath-24">
      <rect class="cls-12" x="0" y="0" width="470.88" height="129"/>
    </clipPath>
    <clipPath id="clippath-25">
      <rect class="cls-12" x="0" y="0" width="470.88" height="129"/>
    </clipPath>
    <clipPath id="clippath-26">
      <rect class="cls-12" x="0" y="0" width="470.88" height="129"/>
    </clipPath>
    <clipPath id="clippath-27">
      <rect class="cls-12" x="0" y="0" width="470.88" height="129"/>
    </clipPath>
    <clipPath id="clippath-28">
      <rect class="cls-12" x="0" y="0" width="470.88" height="129"/>
    </clipPath>
    <clipPath id="clippath-29">
      <rect class="cls-12" x="0" y="0" width="470.88" height="129"/>
    </clipPath>
    <clipPath id="clippath-30">
      <rect class="cls-12" x="0" y="0" width="470.88" height="129"/>
    </clipPath>
    <clipPath id="clippath-31">
      <rect class="cls-12" x="0" y="0" width="470.88" height="129"/>
    </clipPath>
    <clipPath id="clippath-32">
      <rect class="cls-12" x="0" y="0" width="470.88" height="129"/>
    </clipPath>
    <clipPath id="clippath-33">
      <rect class="cls-12" x="0" y="0" width="470.88" height="129"/>
    </clipPath>
    <clipPath id="clippath-34">
      <rect class="cls-12" x="0" y="0" width="470.88" height="129"/>
    </clipPath>
    <clipPath id="clippath-35">
      <rect class="cls-12" x="0" y="0" width="470.88" height="129"/>
    </clipPath>
    <clipPath id="clippath-36">
      <rect class="cls-12" x="0" y="0" width="470.88" height="129"/>
    </clipPath>
    <clipPath id="clippath-37">
      <rect class="cls-12" x="0" y="0" width="470.88" height="129"/>
    </clipPath>
    <clipPath id="clippath-38">
      <rect class="cls-12" x="0" y="0" width="470.88" height="129"/>
    </clipPath>
    <clipPath id="clippath-39">
      <rect class="cls-12" x="0" y="0" width="470.88" height="129"/>
    </clipPath>
    <clipPath id="clippath-40">
      <rect class="cls-12" x="0" y="0" width="470.88" height="129"/>
    </clipPath>
    <clipPath id="clippath-41">
      <rect class="cls-12" x="0" y="0" width="470.88" height="129"/>
    </clipPath>
    <clipPath id="clippath-42">
      <rect class="cls-12" x="0" y="0" width="470.88" height="129"/>
    </clipPath>
    <clipPath id="clippath-43">
      <polyline class="cls-14" points="0 0 470.88 0 470.88 129 0 129"/>
    </clipPath>
    <clipPath id="clippath-44">
      <polyline class="cls-14" points="0 0 470.88 0 470.88 129 0 129"/>
    </clipPath>
    <clipPath id="clippath-45">
      <rect class="cls-12" x="4.2" y="5.76" width="122.04" height="117.84"/>
    </clipPath>
    <clipPath id="clippath-46">
      <rect class="cls-12" x="4.2" y="5.76" width="122.04" height="117.84"/>
    </clipPath>
    <clipPath id="clippath-47">
      <rect class="cls-12" x="4.94" y="6.5" width="120.82" height="116.6"/>
    </clipPath>
    <clipPath id="clippath-48">
      <rect class="cls-12" x="4.94" y="6.5" width="120.82" height="116.6"/>
    </clipPath>
    <clipPath id="clippath-49">
      <rect class="cls-12" x="4.94" y="6.5" width="120.82" height="116.6"/>
    </clipPath>
    <clipPath id="clippath-50">
      <rect class="cls-12" x="0" y="0" width="470.88" height="129"/>
    </clipPath>
    <clipPath id="clippath-51">
      <rect class="cls-12" x="0" y="0" width="470.88" height="129"/>
    </clipPath>
    <clipPath id="clippath-52">
      <rect class="cls-12" x="162.36" y="115.08" width="9" height="9"/>
    </clipPath>
    <clipPath id="clippath-53">
      <rect class="cls-12" x="162.36" y="115.08" width="9" height="9"/>
    </clipPath>
    <clipPath id="clippath-54">
      <rect class="cls-12" x="162.82" y="115.54" width="8.37" height="8.37"/>
    </clipPath>
    <clipPath id="clippath-55">
      <rect class="cls-12" x="203.76" y="114.6" width="9" height="9"/>
    </clipPath>
    <clipPath id="clippath-56">
      <rect class="cls-12" x="203.76" y="114.6" width="9" height="9"/>
    </clipPath>
    <clipPath id="clippath-57">
      <rect class="cls-12" x="204.22" y="115.06" width="8.37" height="8.37"/>
    </clipPath>
    <clipPath id="clippath-58">
      <rect class="cls-12" x="431.88" y="114.32" width="9" height="9"/>
    </clipPath>
    <clipPath id="clippath-59">
      <rect class="cls-12" x="431.88" y="114.32" width="9" height="9"/>
    </clipPath>
    <clipPath id="clippath-60">
      <rect class="cls-12" x="432.34" y="114.77" width="8.37" height="8.37"/>
    </clipPath>
    <clipPath id="clippath-61">
      <rect class="cls-12" x="0" y="0" width="470.88" height="129"/>
    </clipPath>
    <clipPath id="clippath-64">
      <polyline class="cls-14" points="0 0 470.88 0 470.88 129 0 129"/>
    </clipPath>
  </defs>
  <g class="cls-103">
    <rect class="cls-44" x="0" y="0" width="470.88" height="129"/>
  </g>
  <g class="cls-61">
    <g class="cls-93">
      <path class="cls-84" d="M298.48,11.82c0,3.26-2.65,5.91-5.91,5.91s-5.91-2.65-5.91-5.91,2.65-5.92,5.91-5.92,5.91,2.65,5.91,5.92Z"/>
      <path class="cls-24" d="M297.56,9.66l.08.18-1.27-1.9.14.14-1.9-1.27.18.08-2.28-.44h.19l-2.34.44.19-.08-1.84,1.27.13-.13-1.33,1.9.08-.19-.44,2.28v-.19l.44,2.28-.08-.19,1.33,1.9-.13-.13,1.84,1.27-.19-.08,2.34.45h-.19l2.28-.45-.18.08,1.9-1.27-.14.14,1.27-1.9-.08.19.44-2.28v.19l-.44-2.28ZM299.02,11.84l-.48,2.48-1.38,2.07-2.07,1.39-2.48.48-2.54-.48-2-1.39-1.44-2.06-.48-2.48.48-2.48,1.44-2.06,2-1.38,2.54-.48,2.48.48,2.07,1.38,1.38,2.07.48,2.48Z"/>
      <path class="cls-84" d="M272.89,11.82c0,3.26-2.65,5.91-5.91,5.91s-5.91-2.65-5.91-5.91,2.65-5.92,5.91-5.92,5.91,2.65,5.91,5.92Z"/>
      <path class="cls-24" d="M271.98,9.66l.08.18-1.27-1.9.14.14-1.9-1.27.18.08-2.28-.44h.19l-2.34.44.19-.08-1.84,1.27.13-.13-1.33,1.9.08-.19-.44,2.28v-.19l.44,2.28-.08-.19,1.33,1.9-.13-.13,1.84,1.27-.19-.08,2.34.45h-.19l2.28-.45-.18.08,1.9-1.27-.14.14,1.27-1.9-.08.19.44-2.28v.19l-.44-2.28ZM273.43,11.84l-.48,2.48-1.38,2.07-2.07,1.39-2.48.48-2.54-.48-2-1.39-1.44-2.06-.48-2.48.48-2.48,1.44-2.06,2-1.38,2.54-.48,2.48.48,2.07,1.38,1.38,2.07.48,2.48Z"/>
      <path class="cls-84" d="M324.07,11.82c0,3.26-2.65,5.91-5.91,5.91s-5.91-2.65-5.91-5.91,2.65-5.92,5.91-5.92,5.91,2.65,5.91,5.92Z"/>
      <path class="cls-24" d="M323.15,9.66l.08.18-1.27-1.9.14.14-1.9-1.27.18.08-2.28-.44h.19l-2.28.44.18-.08-1.9,1.27.14-.14-1.27,1.9.08-.18-.44,2.28v-.19l.44,2.28-.08-.19,1.27,1.9-.14-.14,1.9,1.27-.18-.08,2.28.45h-.19l2.28-.45-.18.08,1.9-1.27-.14.14,1.27-1.9-.08.19.44-2.28v.19l-.44-2.28ZM324.61,11.84l-.48,2.48-1.38,2.07-2.07,1.39-2.48.48-2.48-.48-2.07-1.39-1.38-2.07-.48-2.48.48-2.48,1.38-2.07,2.07-1.38,2.48-.49,2.48.49,2.07,1.38,1.38,2.07.48,2.48Z"/>
      <path class="cls-84" d="M349.67,11.82c0,3.26-2.65,5.91-5.91,5.91s-5.91-2.65-5.91-5.91,2.65-5.92,5.91-5.92,5.91,2.65,5.91,5.92Z"/>
      <path class="cls-24" d="M348.74,9.66l.08.18-1.27-1.9.14.14-1.9-1.27.19.08-2.28-.44h.19l-2.28.44.18-.08-1.9,1.27.14-.14-1.27,1.9.08-.18-.44,2.28v-.19l.44,2.28-.08-.19,1.27,1.9-.14-.14,1.9,1.27-.18-.08,2.28.45h-.19l2.28-.45-.19.08,1.9-1.27-.14.14,1.27-1.9-.08.19.45-2.28v.19l-.45-2.28ZM350.2,11.84l-.48,2.48-1.38,2.07-2.07,1.39-2.47.48-2.48-.48-2.07-1.39-1.38-2.07-.48-2.48.48-2.48,1.38-2.07,2.07-1.38,2.48-.49,2.47.49,2.07,1.38,1.38,2.07.48,2.48Z"/>
      <path class="cls-84" d="M375.25,11.82c0,3.26-2.65,5.91-5.91,5.91s-5.91-2.65-5.91-5.91,2.64-5.92,5.91-5.92,5.91,2.65,5.91,5.92Z"/>
      <path class="cls-24" d="M374.32,9.66l.08.18-1.27-1.9.14.14-1.9-1.27.19.08-2.28-.44h.19l-2.28.44.18-.08-1.9,1.27.14-.14-1.27,1.9.08-.18-.45,2.28v-.19l.45,2.28-.08-.19,1.27,1.9-.14-.14,1.9,1.27-.18-.08,2.28.45h-.19l2.28-.45-.19.08,1.9-1.27-.14.14,1.27-1.9-.08.19.45-2.28v.19l-.45-2.28ZM375.79,11.84l-.48,2.48-1.38,2.07-2.07,1.39-2.47.48-2.47-.48-2.07-1.39-1.38-2.07-.48-2.48.48-2.48,1.38-2.07,2.07-1.38,2.47-.49,2.47.49,2.07,1.38,1.38,2.07.48,2.48Z"/>
      <path class="cls-84" d="M298.48,37.77c0,3.27-2.65,5.92-5.91,5.92s-5.91-2.65-5.91-5.92,2.65-5.91,5.91-5.91,5.91,2.65,5.91,5.91Z"/>
      <path class="cls-24" d="M297.56,35.58l.08.19-1.27-1.84.13.13-1.9-1.33.19.08-2.28-.45h.19l-2.34.45.2-.09-1.84,1.34.11-.12-1.33,1.84.09-.2-.44,2.34v-.19l.44,2.28-.08-.19,1.33,1.9-.13-.13,1.84,1.27-.19-.08,2.34.44h-.19l2.28-.44-.18.08,1.9-1.27-.14.14,1.27-1.9-.08.19.44-2.28v.19l-.44-2.34ZM299.02,37.83l-.48,2.48-1.38,2.07-2.07,1.38-2.48.48-2.54-.48-2-1.38-1.44-2.06-.48-2.49.48-2.55,1.44-1.99,1.99-1.45,2.55-.48,2.48.48,2.06,1.45,1.38,2,.48,2.54Z"/>
      <path class="cls-84" d="M272.89,37.77c0,3.27-2.65,5.92-5.91,5.92s-5.91-2.65-5.91-5.92,2.65-5.91,5.91-5.91,5.91,2.65,5.91,5.91Z"/>
      <path class="cls-24" d="M271.98,35.58l.08.19-1.27-1.84.13.13-1.9-1.33.19.08-2.28-.45h.19l-2.34.45.2-.09-1.84,1.34.11-.12-1.33,1.84.09-.2-.44,2.34v-.19s.44,2.28.44,2.28l-.08-.19,1.33,1.9-.13-.13,1.84,1.27-.19-.08,2.34.44h-.19l2.28-.44-.18.08,1.9-1.27-.14.14,1.27-1.9-.08.19.44-2.28v.19l-.44-2.34ZM273.43,37.83l-.48,2.48-1.38,2.07-2.07,1.38-2.48.48-2.54-.48-2-1.38-1.44-2.06-.48-2.49.48-2.55,1.44-1.99,1.99-1.45,2.55-.48,2.48.48,2.06,1.45,1.38,2,.48,2.54Z"/>
      <path class="cls-84" d="M324.07,37.77c0,3.27-2.65,5.92-5.91,5.92s-5.91-2.65-5.91-5.92,2.65-5.91,5.91-5.91,5.91,2.65,5.91,5.91Z"/>
      <path class="cls-24" d="M323.15,35.58l.08.19-1.27-1.84.13.13-1.9-1.33.19.08-2.28-.45h.19l-2.28.45.19-.08-1.9,1.33.13-.13-1.27,1.84.08-.19-.44,2.34v-.19l.44,2.28-.08-.19,1.27,1.9-.14-.14,1.9,1.27-.18-.08,2.28.44h-.19l2.28-.44-.18.08,1.9-1.27-.14.14,1.27-1.9-.08.19.44-2.28v.19l-.44-2.34ZM324.61,37.83l-.48,2.48-1.38,2.07-2.07,1.38-2.48.48-2.48-.48-2.07-1.38-1.38-2.07-.48-2.48.48-2.54,1.38-2,2.06-1.45,2.48-.48,2.48.48,2.06,1.45,1.38,2,.48,2.54Z"/>
      <path class="cls-84" d="M349.67,37.77c0,3.27-2.65,5.92-5.91,5.92s-5.91-2.65-5.91-5.92,2.65-5.91,5.91-5.91,5.91,2.65,5.91,5.91Z"/>
      <path class="cls-24" d="M348.74,35.58l.08.19-1.27-1.84.13.13-1.9-1.33.19.08-2.28-.45h.19l-2.28.45.19-.08-1.9,1.33.13-.13-1.27,1.84.08-.19-.44,2.34v-.19l.44,2.28-.08-.19,1.27,1.9-.14-.14,1.9,1.27-.18-.08,2.28.44h-.19l2.28-.44-.19.08,1.9-1.27-.14.14,1.27-1.9-.08.19.45-2.28v.19l-.45-2.34ZM350.2,37.83l-.48,2.48-1.38,2.07-2.07,1.38-2.47.48-2.48-.48-2.07-1.38-1.38-2.07-.48-2.48.48-2.54,1.38-2,2.06-1.45,2.48-.48,2.48.48,2.06,1.45,1.38,2,.48,2.54Z"/>
      <path class="cls-84" d="M375.25,37.77c0,3.27-2.65,5.92-5.91,5.92s-5.91-2.65-5.91-5.92c0-3.26,2.64-5.91,5.91-5.91s5.91,2.65,5.91,5.91Z"/>
      <path class="cls-24" d="M374.32,35.58l.08.19-1.27-1.84.13.13-1.9-1.33.19.08-2.28-.45h.19l-2.28.45.19-.08-1.9,1.33.13-.13-1.27,1.84.08-.19-.44,2.34v-.19s.44,2.28.44,2.28l-.08-.19,1.27,1.9-.14-.14,1.9,1.27-.18-.08,2.28.44h-.19l2.28-.44-.19.08,1.9-1.27-.14.14,1.27-1.9-.08.19.45-2.28v.19l-.45-2.34ZM375.79,37.83l-.48,2.48-1.38,2.07-2.07,1.38-2.47.48-2.47-.48-2.07-1.38-1.38-2.07-.48-2.48.48-2.54,1.38-2,2.06-1.45,2.48-.48,2.48.48,2.06,1.45,1.38,2,.48,2.54Z"/>
      <ellipse class="cls-84" cx="292.57" cy="63.72" rx="5.91" ry="5.92"/>
      <path class="cls-24" d="M297.56,61.57l.08.18-1.27-1.9.14.14-1.9-1.27.18.08-2.28-.44h.19l-2.34.44.19-.08-1.84,1.27.13-.13-1.33,1.9.08-.19-.44,2.28v-.19l.44,2.28-.08-.19,1.33,1.9-.13-.13,1.84,1.27-.19-.08,2.34.44h-.19l2.28-.44-.18.08,1.9-1.27-.14.14,1.27-1.9-.08.19.44-2.28v.19l-.44-2.28ZM299.02,63.75l-.48,2.48-1.38,2.07-2.07,1.38-2.48.48-2.54-.48-2-1.38-1.44-2.06-.48-2.48.48-2.48,1.44-2.06,2-1.38,2.54-.48,2.48.48,2.07,1.38,1.38,2.07.48,2.48Z"/>
      <path class="cls-84" d="M272.89,63.72c0,3.27-2.65,5.92-5.91,5.92s-5.91-2.65-5.91-5.92,2.65-5.92,5.91-5.92,5.91,2.65,5.91,5.92Z"/>
      <path class="cls-24" d="M271.98,61.57l.08.18-1.27-1.9.14.14-1.9-1.27.18.08-2.28-.44h.19l-2.34.44.19-.08-1.84,1.27.13-.13-1.33,1.9.08-.19-.44,2.28v-.19l.44,2.28-.08-.19,1.33,1.9-.13-.13,1.84,1.27-.19-.08,2.34.44h-.19l2.28-.44-.18.08,1.9-1.27-.14.14,1.27-1.9-.08.19.44-2.28v.19l-.44-2.28ZM273.43,63.75l-.48,2.48-1.38,2.07-2.07,1.38-2.48.48-2.54-.48-2-1.38-1.44-2.06-.48-2.48.48-2.48,1.44-2.06,2-1.38,2.54-.48,2.48.48,2.07,1.38,1.38,2.07.48,2.48Z"/>
      <path class="cls-84" d="M349.67,63.72c0,3.27-2.65,5.92-5.91,5.92s-5.91-2.65-5.91-5.92,2.65-5.92,5.91-5.92,5.91,2.65,5.91,5.92Z"/>
      <path class="cls-24" d="M348.74,61.57l.08.18-1.27-1.9.14.14-1.9-1.27.19.08-2.28-.44h.19l-2.28.44.18-.08-1.9,1.27.14-.14-1.27,1.9.08-.18-.44,2.28v-.19l.44,2.28-.08-.19,1.27,1.9-.14-.14,1.9,1.27-.18-.08,2.28.44h-.19l2.28-.44-.19.08,1.9-1.27-.14.14,1.27-1.9-.08.19.45-2.28v.19l-.45-2.28ZM350.2,63.75l-.48,2.48-1.38,2.07-2.07,1.38-2.47.48-2.48-.48-2.07-1.38-1.38-2.07-.48-2.48.48-2.48,1.38-2.07,2.07-1.38,2.48-.48,2.47.48,2.07,1.38,1.38,2.07.48,2.48Z"/>
      <ellipse class="cls-84" cx="369.34" cy="63.72" rx="5.91" ry="5.92"/>
      <path class="cls-24" d="M374.32,61.57l.08.18-1.27-1.9.14.14-1.9-1.27.19.08-2.28-.44h.19l-2.28.44.18-.08-1.9,1.27.14-.14-1.27,1.9.08-.18-.45,2.28v-.19l.45,2.28-.08-.19,1.27,1.9-.14-.14,1.9,1.27-.18-.08,2.28.44h-.19l2.28-.44-.19.08,1.9-1.27-.14.14,1.27-1.9-.08.19.45-2.28v.19l-.45-2.28ZM375.79,63.75l-.48,2.48-1.38,2.07-2.07,1.38-2.47.48-2.47-.48-2.07-1.38-1.38-2.07-.48-2.48.48-2.48,1.38-2.07,2.07-1.38,2.47-.48,2.47.48,2.07,1.38,1.38,2.07.48,2.48Z"/>
      <ellipse class="cls-84" cx="292.57" cy="89.66" rx="5.91" ry="5.92"/>
      <path class="cls-24" d="M297.56,87.49l.08.18-1.27-1.9.14.14-1.9-1.27.18.08-2.28-.44h.19l-2.34.44.19-.08-1.84,1.27.13-.13-1.33,1.9.08-.19-.44,2.28v-.19l.44,2.28-.08-.19,1.33,1.9-.13-.13,1.84,1.27-.19-.08,2.34.44h-.19s2.28-.44,2.28-.44l-.18.08,1.9-1.27-.14.14,1.27-1.9-.08.19.44-2.28v.19l-.44-2.28ZM299.02,89.68l-.48,2.48-1.38,2.07-2.07,1.38-2.48.48-2.54-.48-2-1.38-1.44-2.06-.48-2.48.48-2.48,1.44-2.06,2-1.38,2.54-.48,2.48.48,2.07,1.38,1.38,2.07.48,2.48Z"/>
      <path class="cls-84" d="M272.89,89.66c0,3.27-2.65,5.92-5.91,5.92s-5.91-2.65-5.91-5.92,2.65-5.92,5.91-5.92,5.91,2.65,5.91,5.92Z"/>
      <path class="cls-24" d="M271.98,87.49l.08.18-1.27-1.9.14.14-1.9-1.27.18.08-2.28-.44h.19l-2.34.44.19-.08-1.84,1.27.13-.13-1.33,1.9.08-.19-.44,2.28v-.19l.44,2.28-.08-.19,1.33,1.9-.13-.13,1.84,1.27-.19-.08,2.34.44h-.19s2.28-.44,2.28-.44l-.18.08,1.9-1.27-.14.14,1.27-1.9-.08.19.44-2.28v.19l-.44-2.28ZM273.43,89.68l-.48,2.48-1.38,2.07-2.07,1.38-2.48.48-2.54-.48-2-1.38-1.44-2.06-.48-2.48.48-2.48,1.44-2.06,2-1.38,2.54-.48,2.48.48,2.07,1.38,1.38,2.07.48,2.48Z"/>
      <ellipse class="cls-84" cx="318.16" cy="89.66" rx="5.91" ry="5.92"/>
      <path class="cls-24" d="M323.15,87.49l.08.18-1.27-1.9.14.14-1.9-1.27.18.08-2.28-.44h.19l-2.28.44.18-.08-1.9,1.27.14-.14-1.27,1.9.08-.18-.44,2.28v-.19l.44,2.28-.08-.19,1.27,1.9-.14-.14,1.9,1.27-.18-.08,2.28.44h-.19l2.28-.44-.18.08,1.9-1.27-.14.14,1.27-1.9-.08.19.44-2.28v.19l-.44-2.28ZM324.61,89.68l-.48,2.48-1.38,2.07-2.07,1.38-2.48.48-2.48-.48-2.07-1.38-1.38-2.07-.48-2.48.48-2.48,1.38-2.07,2.07-1.38,2.48-.48,2.48.48,2.07,1.38,1.38,2.07.48,2.48Z"/>
      <path class="cls-84" d="M349.67,89.66c0,3.27-2.65,5.92-5.91,5.92s-5.91-2.65-5.91-5.92,2.65-5.92,5.91-5.92,5.91,2.65,5.91,5.92Z"/>
      <path class="cls-24" d="M348.74,87.49l.08.18-1.27-1.9.14.14-1.9-1.27.19.08-2.28-.44h.19l-2.28.44.18-.08-1.9,1.27.14-.14-1.27,1.9.08-.18-.44,2.28v-.19l.44,2.28-.08-.19,1.27,1.9-.14-.14,1.9,1.27-.18-.08,2.28.44h-.19l2.28-.44-.19.08,1.9-1.27-.14.14,1.27-1.9-.08.19.45-2.28v.19l-.45-2.28ZM350.2,89.68l-.48,2.48-1.38,2.07-2.07,1.38-2.47.48-2.48-.48-2.07-1.38-1.38-2.07-.48-2.48.48-2.48,1.38-2.07,2.07-1.38,2.48-.48,2.47.48,2.07,1.38,1.38,2.07.48,2.48Z"/>
      <ellipse class="cls-84" cx="369.34" cy="89.66" rx="5.91" ry="5.92"/>
      <path class="cls-24" d="M374.32,87.49l.08.18-1.27-1.9.14.14-1.9-1.27.19.08-2.28-.44h.19l-2.28.44.18-.08-1.9,1.27.14-.14-1.27,1.9.08-.18-.45,2.28v-.19l.45,2.28-.08-.19,1.27,1.9-.14-.14,1.9,1.27-.18-.08,2.28.44h-.19l2.28-.44-.19.08,1.9-1.27-.14.14,1.27-1.9-.08.19.45-2.28v.19l-.45-2.28ZM375.79,89.68l-.48,2.48-1.38,2.07-2.07,1.38-2.47.48-2.47-.48-2.07-1.38-1.38-2.07-.48-2.48.48-2.48,1.38-2.07,2.07-1.38,2.47-.48,2.47.48,2.07,1.38,1.38,2.07.48,2.48Z"/>
      <path class="cls-84" d="M298.48,115.6c0,3.27-2.65,5.92-5.91,5.92s-5.91-2.65-5.91-5.92,2.65-5.92,5.91-5.92,5.91,2.65,5.91,5.92Z"/>
      <g class="cls-72">
        <path class="cls-24" d="M297.56,113.42l.08.18-1.27-1.9.14.14-1.9-1.27.18.08-2.28-.44h.19l-2.34.44.19-.08-1.84,1.27.13-.13-1.33,1.9.08-.19-.44,2.28v-.19l.44,2.35-.08-.2,1.33,1.9-.13-.13,1.84,1.27-.19-.08,2.34.44h-.19s2.28-.44,2.28-.44l-.18.08,1.9-1.27-.14.14,1.27-1.9-.08.19.44-2.35v.19l-.44-2.28ZM299.02,115.6l-.48,2.54-1.38,2.07-2.07,1.38-2.48.48-2.54-.48-2-1.38-1.44-2.07-.48-2.55.48-2.48,1.44-2.06,2-1.38,2.54-.48,2.48.48,2.07,1.38,1.38,2.07.48,2.48Z"/>
      </g>
      <path class="cls-84" d="M272.89,115.6c0,3.27-2.65,5.92-5.91,5.92s-5.91-2.65-5.91-5.92,2.65-5.92,5.91-5.92,5.91,2.65,5.91,5.92Z"/>
      <g class="cls-28">
        <path class="cls-24" d="M271.98,113.42l.08.18-1.27-1.9.14.14-1.9-1.27.18.08-2.28-.44h.19l-2.34.44.19-.08-1.84,1.27.13-.13-1.33,1.9.08-.19-.44,2.28v-.19s.44,2.35.44,2.35l-.08-.2,1.33,1.9-.13-.13,1.84,1.27-.19-.08,2.34.44h-.19s2.28-.44,2.28-.44l-.18.08,1.9-1.27-.14.14,1.27-1.9-.08.19.44-2.35v.19l-.44-2.28ZM273.43,115.6l-.48,2.54-1.38,2.07-2.07,1.38-2.48.48-2.54-.48-2-1.38-1.44-2.07-.48-2.55.48-2.48,1.44-2.06,2-1.38,2.54-.48,2.48.48,2.07,1.38,1.38,2.07.48,2.48Z"/>
      </g>
      <path class="cls-84" d="M324.07,115.6c0,3.27-2.65,5.92-5.91,5.92s-5.91-2.65-5.91-5.92c0-3.27,2.65-5.92,5.91-5.92s5.91,2.65,5.91,5.92Z"/>
      <g class="cls-67">
        <path class="cls-24" d="M323.15,113.42l.08.18-1.27-1.9.14.14-1.9-1.27.18.08-2.28-.44h.19l-2.28.44.18-.08-1.9,1.27.14-.14-1.27,1.9.08-.18-.44,2.28v-.19l.44,2.35-.08-.19,1.27,1.9-.14-.14,1.9,1.27-.18-.08,2.28.44h-.19l2.28-.44-.18.08,1.9-1.27-.14.14,1.27-1.9-.08.19.44-2.35v.19l-.44-2.28ZM324.61,115.6l-.48,2.54-1.38,2.07-2.07,1.38-2.48.48-2.48-.48-2.07-1.38-1.38-2.07-.48-2.54.48-2.48,1.38-2.07,2.07-1.38,2.48-.48,2.48.48,2.07,1.38,1.38,2.07.48,2.48Z"/>
      </g>
      <path class="cls-84" d="M349.67,115.6c0,3.27-2.65,5.92-5.91,5.92s-5.91-2.65-5.91-5.92,2.65-5.92,5.91-5.92,5.91,2.65,5.91,5.92Z"/>
      <g class="cls-5">
        <path class="cls-24" d="M348.74,113.42l.08.18-1.27-1.9.14.14-1.9-1.27.19.08-2.28-.44h.19l-2.28.44.18-.08-1.9,1.27.14-.14-1.27,1.9.08-.18-.44,2.28v-.19l.44,2.35-.08-.19,1.27,1.9-.14-.14,1.9,1.27-.18-.08,2.28.44h-.19l2.28-.44-.19.08,1.9-1.27-.14.14,1.27-1.9-.08.19.45-2.35v.19l-.45-2.28ZM350.2,115.6l-.48,2.54-1.38,2.07-2.07,1.38-2.47.48-2.48-.48-2.07-1.38-1.38-2.07-.48-2.54.48-2.48,1.38-2.07,2.07-1.38,2.48-.48,2.47.48,2.07,1.38,1.38,2.07.48,2.48Z"/>
      </g>
      <path class="cls-84" d="M375.25,115.6c0,3.27-2.65,5.92-5.91,5.92s-5.91-2.65-5.91-5.92,2.64-5.92,5.91-5.92,5.91,2.65,5.91,5.92Z"/>
      <g class="cls-6">
        <path class="cls-24" d="M374.32,113.42l.08.18-1.27-1.9.14.14-1.9-1.27.19.08-2.28-.44h.19l-2.28.44.18-.08-1.9,1.27.14-.14-1.27,1.9.08-.18-.45,2.28v-.19s.45,2.35.45,2.35l-.08-.19,1.27,1.9-.14-.14,1.9,1.27-.18-.08,2.28.44h-.19l2.28-.44-.19.08,1.9-1.27-.14.14,1.27-1.9-.08.19.45-2.35v.19l-.45-2.28ZM375.79,115.6l-.48,2.54-1.38,2.07-2.07,1.38-2.47.48-2.47-.48-2.07-1.38-1.38-2.07-.48-2.54.48-2.48,1.38-2.07,2.07-1.38,2.47-.48,2.47.48,2.07,1.38,1.38,2.07.48,2.48Z"/>
      </g>
      <line class="cls-20" x1="342.98" y1="63.72" x2="318.16" y2="63.72"/>
      <polygon class="cls-24" points="340.63 60.8 340.14 61.33 342.71 63.72 340.14 66.1 340.63 66.62 343.75 63.72 340.63 60.8"/>
      <line class="cls-20" x1="318.16" y1="38.53" x2="318.16" y2="63.72"/>
      <polygon class="cls-24" points="315.25 40.89 315.78 41.37 318.16 38.81 320.55 41.37 321.06 40.89 318.16 37.77 315.25 40.89"/>
      <line class="cls-20" x1="293.34" y1="63.72" x2="318.16" y2="63.72"/>
      <polygon class="cls-24" points="295.69 66.62 296.17 66.1 293.61 63.72 296.17 61.33 295.69 60.8 292.57 63.72 295.69 66.62"/>
      <line class="cls-20" x1="318.16" y1="88.89" x2="318.16" y2="63.72"/>
      <polygon class="cls-24" points="321.06 86.54 320.55 86.05 318.16 88.62 315.78 86.05 315.25 86.54 318.16 89.66 321.06 86.54"/>
      <ellipse class="cls-84" cx="318.16" cy="63.72" rx="5.91" ry="5.92"/>
      <path class="cls-24" d="M323.15,61.57l.08.18-1.27-1.9.14.14-1.9-1.27.18.08-2.28-.44h.19l-2.28.44.18-.08-1.9,1.27.14-.14-1.27,1.9.08-.18-.44,2.28v-.19l.44,2.28-.08-.19,1.27,1.9-.14-.14,1.9,1.27-.18-.08,2.28.44h-.19l2.28-.44-.18.08,1.9-1.27-.14.14,1.27-1.9-.08.19.44-2.28v.19l-.44-2.28ZM324.61,63.75l-.48,2.48-1.38,2.07-2.07,1.38-2.48.48-2.48-.48-2.07-1.38-1.38-2.07-.48-2.48.48-2.48,1.38-2.07,2.07-1.38,2.48-.48,2.48.48,2.07,1.38,1.38,2.07.48,2.48Z"/>
    </g>
  </g>
  <rect class="cls-13" x="138.72" y="29.64" width="14.52" height="73.44" rx="2.42" ry="2.42"/>
  <g class="cls-69">
    <path class="cls-78" d="M147.22,39.53l.45-.32.31.08-.71,3.08c-.07.31-.11.55-.11.72,0,.13.02.22.06.28.04.06.11.09.2.09.1,0,.2-.04.31-.12.11-.08.27-.23.47-.45l.28.27c-.29.31-.54.53-.75.66-.21.13-.43.2-.67.2-.2,0-.36-.07-.48-.2-.12-.13-.18-.31-.18-.53,0-.18.04-.37.11-.57l-.06-.02c-.31.45-.61.79-.89,1-.28.21-.57.32-.89.32-.36,0-.63-.13-.83-.4-.2-.27-.29-.65-.29-1.13,0-.56.11-1.09.33-1.61.22-.51.52-.92.9-1.22.38-.3.81-.44,1.28-.44.21,0,.41.02.59.07.18.05.37.13.57.25ZM146.79,40.98c.03-.13.05-.25.06-.35,0-.1.01-.2.01-.32,0-.25-.05-.43-.16-.55-.11-.12-.29-.18-.54-.18-.33,0-.63.13-.9.4-.27.27-.47.63-.62,1.08-.15.45-.22.9-.22,1.35,0,.34.05.59.14.76.09.17.25.25.46.25s.42-.09.63-.28c.21-.18.42-.45.64-.79.22-.34.37-.74.46-1.18l.04-.21Z"/>
  </g>
  <g class="cls-38">
    <path class="cls-78" d="M146.68,55.29l-.34,1.5h-.47c-.01-.28-.04-.5-.07-.64-.04-.14-.08-.24-.13-.29-.05-.05-.11-.09-.18-.11-.07-.02-.17-.03-.3-.03h-1.59l-.56,2.55h.93c.23,0,.41-.05.53-.16.12-.11.24-.29.37-.54h.44l-.44,1.87h-.41c0-.26-.02-.44-.05-.53-.03-.09-.08-.15-.14-.18-.06-.02-.18-.04-.34-.04h-.97l-.62,2.81h1.44c.19,0,.34-.02.46-.06.11-.04.22-.1.32-.19.1-.09.2-.21.3-.37.1-.16.22-.37.35-.64h.47l-.43,1.69h-4.32l.05-.24c.12-.02.22-.05.28-.1.06-.04.11-.1.16-.18.04-.08.08-.17.12-.29.04-.11.09-.33.16-.65l.83-3.75c.07-.32.11-.59.11-.78,0-.15-.04-.26-.11-.32-.08-.06-.2-.1-.36-.1l.05-.24h4.49Z"/>
  </g>
  <g class="cls-39">
    <path class="cls-78" d="M149.17,63.09c-.12.17-.24.31-.36.43-.11.12-.23.22-.34.3-.11.08-.23.13-.34.17s-.23.05-.36.05c-.28,0-.5-.1-.66-.31-.16-.2-.23-.5-.23-.89,0-.23.02-.45.07-.67.05-.21.12-.41.21-.6.09-.19.2-.36.32-.51.12-.15.26-.29.41-.4.15-.11.31-.2.47-.26.17-.06.34-.09.52-.09.19,0,.36.02.5.07.14.04.28.1.4.18l.35-.25.29.08-.54,2.35c-.03.13-.05.24-.06.33-.01.09-.02.16-.02.23,0,.09.02.16.06.2.04.04.09.06.16.06.04,0,.09,0,.13-.03.04-.02.09-.04.14-.08.05-.04.1-.08.16-.14.06-.06.12-.12.2-.2.04.04.08.08.12.12.04.04.08.08.12.12-.12.12-.23.23-.33.31-.1.09-.19.16-.29.22-.09.06-.18.1-.27.12-.09.03-.18.04-.28.04-.17,0-.31-.06-.4-.17-.1-.11-.14-.26-.14-.46,0-.11.02-.21.05-.31l-.05-.02ZM149.4,61.95c.03-.15.06-.28.08-.4.02-.12.03-.23.03-.34,0-.19-.04-.33-.13-.41-.09-.08-.23-.12-.42-.12-.14,0-.27.03-.39.09-.12.06-.23.15-.33.25-.1.11-.19.23-.27.37-.08.14-.14.29-.2.45-.05.16-.09.32-.12.49-.03.17-.04.33-.04.48,0,.26.04.45.11.58.07.13.19.19.35.19.08,0,.16-.01.23-.04s.15-.07.24-.14c.21-.16.39-.37.54-.6.15-.24.26-.52.33-.84Z"/>
  </g>
  <g class="cls-54">
    <path class="cls-78" d="M147.55,78.6l-.3,1.37h-3.52l-.09-.24,2.66-3.06c.38-.43.65-.74.83-.92l-.03-.03h-1.14c-.17,0-.29.01-.37.03-.08.02-.16.06-.23.12-.08.06-.16.14-.25.25-.09.11-.19.27-.3.48h-.43l.29-1.28h3.46l.09.24-2.32,2.67c-.45.52-.84.95-1.17,1.31l.03.03h1.1c.19,0,.34-.01.45-.03.1-.02.19-.06.27-.12.08-.06.16-.15.24-.27.08-.12.19-.3.31-.56h.43Z"/>
  </g>
  <g class="cls-76">
    <path class="cls-78" d="M145.49,97.34c.34-.37.63-.73.87-1.07.24-.34.44-.71.59-1.1.15-.39.23-.77.23-1.16,0-.15-.01-.29-.03-.43l.05-.24h.97c-.07.72-.29,1.4-.65,2.03-.36.64-1.03,1.52-2.03,2.66h-.71c-.03-.84-.06-1.64-.1-2.39-.04-.61-.07-1.03-.1-1.25-.04-.24-.09-.41-.17-.49-.05-.06-.13-.08-.22-.08-.08,0-.16.03-.26.09-.09.06-.2.16-.33.29l-.27-.27c.22-.2.39-.34.51-.42.12-.08.23-.14.34-.18.11-.04.24-.06.36-.06.19,0,.34.03.44.1.11.06.19.16.26.3.06.13.11.32.14.56.03.24.05.62.07,1.16.02.53.03,1.19.03,1.96Z"/>
  </g>
  <rect class="cls-9" x="157.8" y="29.64" width="14.52" height="73.44" rx="2.42" ry="2.42"/>
  <g class="cls-101">
    <path class="cls-32" d="M166.28,39.53l.45-.32.31.08-.71,3.08c-.07.31-.11.55-.11.72,0,.13.02.22.06.28.04.06.11.09.2.09.1,0,.2-.04.31-.12.11-.08.27-.23.47-.45l.28.27c-.29.31-.54.53-.75.66-.21.13-.43.2-.67.2-.2,0-.36-.07-.48-.2-.12-.13-.18-.31-.18-.53,0-.18.04-.37.11-.57l-.06-.02c-.31.45-.61.79-.89,1-.28.21-.57.32-.89.32-.36,0-.63-.13-.83-.4-.2-.27-.29-.65-.29-1.13,0-.56.11-1.09.33-1.61.22-.51.52-.92.9-1.22.38-.3.81-.44,1.28-.44.21,0,.41.02.59.07.18.05.37.13.57.25ZM165.85,40.98c.03-.13.05-.25.06-.35,0-.1.01-.2.01-.32,0-.25-.05-.43-.16-.55-.11-.12-.29-.18-.54-.18-.33,0-.63.13-.9.4-.27.27-.47.63-.62,1.08-.15.45-.22.9-.22,1.35,0,.34.05.59.14.76.09.17.25.25.46.25s.42-.09.63-.28c.21-.18.42-.45.64-.79.22-.34.37-.74.46-1.18l.04-.21Z"/>
  </g>
  <g class="cls-81">
    <path class="cls-32" d="M165.74,55.29l-.34,1.5h-.47c-.01-.28-.04-.5-.07-.64-.04-.14-.08-.24-.13-.29-.05-.05-.11-.09-.18-.11-.07-.02-.17-.03-.3-.03h-1.59l-.56,2.55h.93c.23,0,.41-.05.53-.16.12-.11.24-.29.37-.54h.44l-.44,1.87h-.41c0-.26-.02-.44-.05-.53-.03-.09-.08-.15-.14-.18-.06-.02-.18-.04-.34-.04h-.97l-.62,2.81h1.44c.19,0,.34-.02.46-.06.11-.04.22-.1.32-.19.1-.09.2-.21.3-.37.1-.16.22-.37.35-.64h.47l-.43,1.69h-4.32l.05-.24c.12-.02.22-.05.28-.1.06-.04.11-.1.16-.18.04-.08.08-.17.12-.29.04-.11.09-.33.16-.65l.83-3.75c.07-.32.11-.59.11-.78,0-.15-.04-.26-.11-.32-.08-.06-.2-.1-.36-.1l.05-.24h4.49Z"/>
  </g>
  <g class="cls-22">
    <path class="cls-32" d="M168.21,63.09c-.12.17-.24.31-.36.43-.11.12-.23.22-.34.3-.11.08-.23.13-.34.17s-.23.05-.36.05c-.28,0-.5-.1-.66-.31-.16-.2-.23-.5-.23-.89,0-.23.02-.45.07-.67.05-.21.12-.41.21-.6.09-.19.2-.36.32-.51.12-.15.26-.29.41-.4.15-.11.31-.2.47-.26.17-.06.34-.09.52-.09.19,0,.36.02.5.07.14.04.28.1.4.18l.35-.25.29.08-.54,2.35c-.03.13-.05.24-.06.33-.01.09-.02.16-.02.23,0,.09.02.16.06.2.04.04.09.06.16.06.04,0,.09,0,.13-.03.04-.02.09-.04.14-.08.05-.04.1-.08.16-.14.06-.06.12-.12.2-.2.04.04.08.08.12.12.04.04.08.08.12.12-.12.12-.23.23-.33.31-.1.09-.19.16-.29.22-.09.06-.18.1-.27.12-.09.03-.18.04-.28.04-.17,0-.31-.06-.4-.17-.1-.11-.14-.26-.14-.46,0-.11.02-.21.05-.31l-.05-.02ZM168.44,61.95c.03-.15.06-.28.08-.4.02-.12.03-.23.03-.34,0-.19-.04-.33-.13-.41-.09-.08-.23-.12-.42-.12-.14,0-.27.03-.39.09-.12.06-.23.15-.33.25-.1.11-.19.23-.27.37-.08.14-.14.29-.2.45-.05.16-.09.32-.12.49-.03.17-.04.33-.04.48,0,.26.04.45.11.58.07.13.19.19.35.19.08,0,.16-.01.23-.04s.15-.07.24-.14c.21-.16.39-.37.54-.6.15-.24.26-.52.33-.84Z"/>
  </g>
  <g class="cls-92">
    <path class="cls-32" d="M166.61,78.6l-.3,1.37h-3.52l-.09-.24,2.66-3.06c.38-.43.65-.74.83-.92l-.03-.03h-1.14c-.17,0-.29.01-.37.03-.08.02-.16.06-.23.12-.08.06-.16.14-.25.25-.09.11-.19.27-.3.48h-.43l.29-1.28h3.46l.09.24-2.32,2.67c-.45.52-.84.95-1.17,1.31l.03.03h1.1c.19,0,.34-.01.45-.03.1-.02.19-.06.27-.12.08-.06.16-.15.24-.27.08-.12.19-.3.31-.56h.43Z"/>
  </g>
  <g class="cls-7">
    <path class="cls-32" d="M164.55,97.34c.34-.37.63-.73.87-1.07.24-.34.44-.71.59-1.1.15-.39.23-.77.23-1.16,0-.15-.01-.29-.03-.43l.05-.24h.97c-.07.72-.29,1.4-.65,2.03-.36.64-1.03,1.52-2.03,2.66h-.71c-.03-.84-.06-1.64-.1-2.39-.04-.61-.07-1.03-.1-1.25-.04-.24-.09-.41-.17-.49-.05-.06-.13-.08-.22-.08-.08,0-.16.03-.26.09-.09.06-.2.16-.33.29l-.27-.27c.22-.2.39-.34.51-.42.12-.08.23-.14.34-.18.11-.04.24-.06.36-.06.19,0,.34.03.44.1.11.06.19.16.26.3.06.13.11.32.14.56.03.24.05.62.07,1.16.02.53.03,1.19.03,1.96Z"/>
  </g>
  <rect class="cls-16" x="177.96" y="29.64" width="14.64" height="73.44" rx="2.44" ry="2.44"/>
  <g class="cls-26">
    <path class="cls-78" d="M186.53,39.53l.45-.32.31.08-.71,3.08c-.07.31-.11.55-.11.72,0,.13.02.22.06.28.04.06.11.09.2.09.1,0,.2-.04.31-.12.11-.08.27-.23.47-.45l.28.27c-.29.31-.54.53-.75.66-.21.13-.43.2-.67.2-.2,0-.36-.07-.48-.2-.12-.13-.18-.31-.18-.53,0-.18.04-.37.11-.57l-.06-.02c-.31.45-.61.79-.89,1-.28.21-.57.32-.89.32-.36,0-.63-.13-.83-.4-.2-.27-.29-.65-.29-1.13,0-.56.11-1.09.33-1.61.22-.51.52-.92.9-1.22.38-.3.81-.44,1.28-.44.21,0,.41.02.59.07.18.05.37.13.57.25ZM186.1,40.98c.03-.13.05-.25.06-.35,0-.1.01-.2.01-.32,0-.25-.05-.43-.16-.55-.11-.12-.29-.18-.54-.18-.33,0-.63.13-.9.4-.27.27-.47.63-.62,1.08-.15.45-.22.9-.22,1.35,0,.34.05.59.14.76.09.17.25.25.46.25s.42-.09.63-.28c.21-.18.42-.45.64-.79.22-.34.37-.74.46-1.18l.04-.21Z"/>
  </g>
  <g class="cls-83">
    <path class="cls-78" d="M185.99,55.29l-.34,1.5h-.47c-.01-.28-.04-.5-.07-.64-.04-.14-.08-.24-.13-.29-.05-.05-.11-.09-.18-.11-.07-.02-.17-.03-.3-.03h-1.59l-.56,2.55h.93c.23,0,.41-.05.53-.16.12-.11.24-.29.37-.54h.44l-.44,1.87h-.41c0-.26-.02-.44-.05-.53-.03-.09-.08-.15-.14-.18-.06-.02-.18-.04-.34-.04h-.97l-.62,2.81h1.44c.19,0,.34-.02.46-.06.11-.04.22-.1.32-.19.1-.09.2-.21.3-.37.1-.16.22-.37.35-.64h.47l-.43,1.69h-4.32l.05-.24c.12-.02.22-.05.28-.1.06-.04.11-.1.16-.18.04-.08.08-.17.12-.29.04-.11.09-.33.16-.65l.83-3.75c.07-.32.11-.59.11-.78,0-.15-.04-.26-.11-.32-.08-.06-.2-.1-.36-.1l.05-.24h4.49Z"/>
  </g>
  <g class="cls-68">
    <path class="cls-78" d="M188.46,63.09c-.12.17-.24.31-.36.43-.11.12-.23.22-.34.3-.11.08-.23.13-.34.17s-.23.05-.36.05c-.28,0-.5-.1-.66-.31-.16-.2-.23-.5-.23-.89,0-.23.02-.45.07-.67.05-.21.12-.41.21-.6.09-.19.2-.36.32-.51.12-.15.26-.29.41-.4.15-.11.31-.2.47-.26.17-.06.34-.09.52-.09.19,0,.36.02.5.07.14.04.28.1.4.18l.35-.25.29.08-.54,2.35c-.03.13-.05.24-.06.33-.01.09-.02.16-.02.23,0,.09.02.16.06.2.04.04.09.06.16.06.04,0,.09,0,.13-.03.04-.02.09-.04.14-.08.05-.04.1-.08.16-.14.06-.06.12-.12.2-.2.04.04.08.08.12.12.04.04.08.08.12.12-.12.12-.23.23-.33.31-.1.09-.19.16-.29.22-.09.06-.18.1-.27.12-.09.03-.18.04-.28.04-.17,0-.31-.06-.4-.17-.1-.11-.14-.26-.14-.46,0-.11.02-.21.05-.31l-.05-.02ZM188.69,61.95c.03-.15.06-.28.08-.4.02-.12.03-.23.03-.34,0-.19-.04-.33-.13-.41-.09-.08-.23-.12-.42-.12-.14,0-.27.03-.39.09-.12.06-.23.15-.33.25-.1.11-.19.23-.27.37-.08.14-.14.29-.2.45-.05.16-.09.32-.12.49-.03.17-.04.33-.04.48,0,.26.04.45.11.58.07.13.19.19.35.19.08,0,.16-.01.23-.04s.15-.07.24-.14c.21-.16.39-.37.54-.6.15-.24.26-.52.33-.84Z"/>
  </g>
  <g class="cls-4">
    <path class="cls-78" d="M186.86,78.6l-.3,1.37h-3.52l-.09-.24,2.66-3.06c.38-.43.65-.74.83-.92l-.03-.03h-1.14c-.17,0-.29.01-.37.03-.08.02-.16.06-.23.12-.08.06-.16.14-.25.25-.09.11-.19.27-.3.48h-.43l.29-1.28h3.46l.09.24-2.32,2.67c-.45.52-.84.95-1.17,1.31l.03.03h1.1c.19,0,.34-.01.45-.03.1-.02.19-.06.27-.12.08-.06.16-.15.24-.27.08-.12.19-.3.31-.56h.43Z"/>
  </g>
  <g class="cls-30">
    <path class="cls-78" d="M184.8,97.34c.34-.37.63-.73.87-1.07.24-.34.44-.71.59-1.1.15-.39.23-.77.23-1.16,0-.15-.01-.29-.03-.43l.05-.24h.97c-.07.72-.29,1.4-.65,2.03-.36.64-1.03,1.52-2.03,2.66h-.71c-.03-.84-.06-1.64-.1-2.39-.04-.61-.07-1.03-.1-1.25-.04-.24-.09-.41-.17-.49-.05-.06-.13-.08-.22-.08-.08,0-.16.03-.26.09-.09.06-.2.16-.33.29l-.27-.27c.22-.2.39-.34.51-.42.12-.08.23-.14.34-.18.11-.04.24-.06.36-.06.19,0,.34.03.44.1.11.06.19.16.26.3.06.13.11.32.14.56.03.24.05.62.07,1.16.02.53.03,1.19.03,1.96Z"/>
  </g>
  <rect class="cls-18" x="198.72" y="29.64" width="14.64" height="73.44" rx="2.44" ry="2.44"/>
  <g class="cls-33">
    <path class="cls-32" d="M207.32,39.53l.45-.32.31.08-.71,3.08c-.07.31-.11.55-.11.72,0,.13.02.22.06.28.04.06.11.09.2.09.1,0,.2-.04.31-.12.11-.08.27-.23.47-.45l.28.27c-.29.31-.54.53-.75.66-.21.13-.43.2-.67.2-.2,0-.36-.07-.48-.2-.12-.13-.18-.31-.18-.53,0-.18.04-.37.11-.57l-.06-.02c-.31.45-.61.79-.89,1-.28.21-.57.32-.89.32-.36,0-.63-.13-.83-.4-.2-.27-.29-.65-.29-1.13,0-.56.11-1.09.33-1.61.22-.51.52-.92.9-1.22.38-.3.81-.44,1.28-.44.21,0,.41.02.59.07.18.05.37.13.57.25ZM206.89,40.98c.03-.13.05-.25.06-.35,0-.1.01-.2.01-.32,0-.25-.05-.43-.16-.55-.11-.12-.29-.18-.54-.18-.33,0-.63.13-.9.4-.27.27-.47.63-.62,1.08-.15.45-.22.9-.22,1.35,0,.34.05.59.14.76.09.17.25.25.46.25s.42-.09.63-.28c.21-.18.42-.45.64-.79.22-.34.37-.74.46-1.18l.04-.21Z"/>
  </g>
  <g class="cls-102">
    <path class="cls-32" d="M206.78,55.29l-.34,1.5h-.47c-.01-.28-.04-.5-.07-.64-.04-.14-.08-.24-.13-.29-.05-.05-.11-.09-.18-.11-.07-.02-.17-.03-.3-.03h-1.59l-.56,2.55h.93c.23,0,.41-.05.53-.16.12-.11.24-.29.37-.54h.44l-.44,1.87h-.41c0-.26-.02-.44-.05-.53-.03-.09-.08-.15-.14-.18-.06-.02-.18-.04-.34-.04h-.97l-.62,2.81h1.44c.19,0,.34-.02.46-.06.11-.04.22-.1.32-.19.1-.09.2-.21.3-.37.1-.16.22-.37.35-.64h.47l-.43,1.69h-4.32l.05-.24c.12-.02.22-.05.28-.1.06-.04.11-.1.16-.18.04-.08.08-.17.12-.29.04-.11.09-.33.16-.65l.83-3.75c.07-.32.11-.59.11-.78,0-.15-.04-.26-.11-.32-.08-.06-.2-.1-.36-.1l.05-.24h4.49Z"/>
  </g>
  <g class="cls-47">
    <path class="cls-32" d="M209.25,63.09c-.12.17-.24.31-.36.43-.11.12-.23.22-.34.3-.11.08-.23.13-.34.17s-.23.05-.36.05c-.28,0-.5-.1-.66-.31-.16-.2-.23-.5-.23-.89,0-.23.02-.45.07-.67.05-.21.12-.41.21-.6.09-.19.2-.36.32-.51.12-.15.26-.29.41-.4.15-.11.31-.2.47-.26.17-.06.34-.09.52-.09.19,0,.36.02.5.07.14.04.28.1.4.18l.35-.25.29.08-.54,2.35c-.03.13-.05.24-.06.33-.01.09-.02.16-.02.23,0,.09.02.16.06.2.04.04.09.06.16.06.04,0,.09,0,.13-.03.04-.02.09-.04.14-.08.05-.04.1-.08.16-.14.06-.06.12-.12.2-.2.04.04.08.08.12.12.04.04.08.08.12.12-.12.12-.23.23-.33.31-.1.09-.19.16-.29.22-.09.06-.18.1-.27.12-.09.03-.18.04-.28.04-.17,0-.31-.06-.4-.17-.1-.11-.14-.26-.14-.46,0-.11.02-.21.05-.31l-.05-.02ZM209.48,61.95c.03-.15.06-.28.08-.4.02-.12.03-.23.03-.34,0-.19-.04-.33-.13-.41-.09-.08-.23-.12-.42-.12-.14,0-.27.03-.39.09-.12.06-.23.15-.33.25-.1.11-.19.23-.27.37-.08.14-.14.29-.2.45-.05.16-.09.32-.12.49-.03.17-.04.33-.04.48,0,.26.04.45.11.58.07.13.19.19.35.19.08,0,.16-.01.23-.04s.15-.07.24-.14c.21-.16.39-.37.54-.6.15-.24.26-.52.33-.84Z"/>
  </g>
  <g class="cls-73">
    <path class="cls-32" d="M207.65,78.6l-.3,1.37h-3.52l-.09-.24,2.66-3.06c.38-.43.65-.74.83-.92l-.03-.03h-1.14c-.17,0-.29.01-.37.03-.08.02-.16.06-.23.12-.08.06-.16.14-.25.25-.09.11-.19.27-.3.48h-.43l.29-1.28h3.46l.09.24-2.32,2.67c-.45.52-.84.95-1.17,1.31l.03.03h1.1c.19,0,.34-.01.45-.03.1-.02.19-.06.27-.12.08-.06.16-.15.24-.27.08-.12.19-.3.31-.56h.43Z"/>
  </g>
  <g class="cls-49">
    <path class="cls-32" d="M205.59,97.34c.34-.37.63-.73.87-1.07.24-.34.44-.71.59-1.1.15-.39.23-.77.23-1.16,0-.15-.01-.29-.03-.43l.05-.24h.97c-.07.72-.29,1.4-.65,2.03-.36.64-1.03,1.52-2.03,2.66h-.71c-.03-.84-.06-1.64-.1-2.39-.04-.61-.07-1.03-.1-1.25-.04-.24-.09-.41-.17-.49-.05-.06-.13-.08-.22-.08-.08,0-.16.03-.26.09-.09.06-.2.16-.33.29l-.27-.27c.22-.2.39-.34.51-.42.12-.08.23-.14.34-.18.11-.04.24-.06.36-.06.19,0,.34.03.44.1.11.06.19.16.26.3.06.13.11.32.14.56.03.24.05.62.07,1.16.02.53.03,1.19.03,1.96Z"/>
  </g>
  <g class="cls-60">
    <text class="cls-35" transform="translate(145.08 12.74)"><tspan class="cls-74" x="0" y="0">P</tspan><tspan x="5.41" y="0">a</tspan><tspan class="cls-79" x="9.96" y="0">t</tspan><tspan x="12.72" y="0">h</tspan></text>
  </g>
  <g class="cls-95">
    <text class="cls-35" transform="translate(162.84 12.74)"><tspan x="0" y="0">-</tspan></text>
  </g>
  <g class="cls-82">
    <text class="cls-35" transform="translate(165.6 12.74)"><tspan class="cls-79" x="0" y="0">d</tspan><tspan x="5.03" y="0">e</tspan><tspan class="cls-57" x="9.58" y="0">p</tspan><tspan x="14.63" y="0">e</tspan><tspan class="cls-50" x="19.18" y="0">n</tspan><tspan class="cls-79" x="24.22" y="0">d</tspan><tspan x="29.25" y="0">e</tspan><tspan class="cls-57" x="33.81" y="0">n</tspan><tspan x="38.85" y="0">t</tspan></text>
  </g>
  <g class="cls-8">
    <text class="cls-41" transform="translate(139.2 23.57)"><tspan class="cls-75" x="0" y="0">hopp</tspan><tspan x="20.12" y="0">i</tspan><tspan class="cls-96" x="22.39" y="0">n</tspan><tspan class="cls-75" x="27.43" y="0">g</tspan><tspan class="cls-29" x="32.46" y="0"> </tspan><tspan class="cls-75" x="34.38" y="0">p</tspan><tspan class="cls-105" x="39.41" y="0">a</tspan><tspan class="cls-91" x="43.95" y="0">r</tspan><tspan x="47.1" y="0">a</tspan><tspan class="cls-21" x="51.64" y="0">m</tspan><tspan class="cls-105" x="58.97" y="0">e</tspan><tspan class="cls-96" x="63.51" y="0">t</tspan><tspan x="66.28" y="0">er</tspan></text>
  </g>
  <g class="cls-85">
    <text class="cls-35" transform="translate(408.12 12.74)"><tspan class="cls-31" x="0" y="0">E</tspan><tspan class="cls-94" x="5.43" y="0">ff</tspan><tspan class="cls-48" x="10.92" y="0">ec</tspan><tspan class="cls-94" x="20.05" y="0">t</tspan><tspan x="22.79" y="0">i</tspan><tspan class="cls-48" x="25.07" y="0">v</tspan><tspan class="cls-87" x="29.63" y="0">e</tspan></text>
  </g>
  <g class="cls-23">
    <text class="cls-41" transform="translate(388.2 23.57)"><tspan class="cls-75" x="0" y="0">hopp</tspan><tspan x="20.12" y="0">i</tspan><tspan class="cls-96" x="22.39" y="0">n</tspan><tspan class="cls-75" x="27.43" y="0">g</tspan><tspan class="cls-29" x="32.46" y="0"> </tspan><tspan class="cls-75" x="34.38" y="0">p</tspan><tspan class="cls-63" x="39.41" y="0">a</tspan><tspan class="cls-80" x="43.95" y="0">r</tspan><tspan x="47.1" y="0">a</tspan><tspan class="cls-36" x="51.64" y="0">m</tspan><tspan x="58.96" y="0">e</tspan><tspan class="cls-96" x="63.5" y="0">t</tspan><tspan x="66.27" y="0">er</tspan></text>
  </g>
  <rect class="cls-19" x="417.96" y="29.64" width="14.64" height="73.44" rx="2.44" ry="2.44"/>
  <g class="cls-2">
    <rect x="423.46" y="37.61" width="4.28" height=".52"/>
  </g>
  <g class="cls-58">
    <path d="M426.56,39.53l.45-.32.31.08-.71,3.08c-.07.31-.11.55-.11.72,0,.13.02.22.06.28.04.06.11.09.2.09.1,0,.2-.04.31-.12.11-.08.27-.23.47-.45l.28.27c-.29.31-.54.53-.75.66-.21.13-.43.2-.67.2-.2,0-.36-.07-.48-.2-.12-.13-.18-.31-.18-.53,0-.18.04-.37.11-.57l-.06-.02c-.31.45-.61.79-.89,1-.28.21-.57.32-.89.32-.36,0-.63-.13-.83-.4-.2-.27-.29-.65-.29-1.13,0-.56.11-1.09.33-1.61.22-.51.52-.92.9-1.22.38-.3.81-.44,1.28-.44.21,0,.41.02.59.07.18.05.37.13.57.25ZM426.13,40.98c.03-.13.05-.25.06-.35s.01-.2.01-.32c0-.25-.05-.43-.16-.55-.11-.12-.29-.18-.54-.18-.33,0-.63.13-.9.4-.27.27-.47.63-.62,1.08-.15.45-.22.9-.22,1.35,0,.34.05.59.14.76.09.17.25.25.46.25s.42-.09.63-.28c.21-.18.42-.45.64-.79.22-.34.37-.74.46-1.18l.04-.21Z"/>
  </g>
  <g class="cls-56">
    <rect x="421.66" y="53.79" width="4.29" height=".52"/>
  </g>
  <g class="cls-99">
    <path d="M426.02,55.29l-.34,1.5h-.47c-.01-.28-.04-.5-.07-.64-.04-.14-.08-.24-.13-.29-.05-.05-.11-.09-.18-.11-.07-.02-.17-.03-.3-.03h-1.59l-.56,2.55h.93c.23,0,.41-.05.53-.16.12-.11.24-.29.37-.54h.44l-.44,1.87h-.41c0-.26-.02-.44-.05-.53-.03-.09-.08-.15-.14-.18s-.18-.04-.34-.04h-.98l-.62,2.81h1.44c.19,0,.34-.02.46-.06.11-.04.22-.1.32-.19.1-.09.2-.21.3-.37.1-.16.22-.37.35-.64h.47l-.43,1.69h-4.32l.05-.24c.12-.02.22-.05.28-.1.06-.04.11-.1.16-.18.04-.08.08-.17.12-.29.04-.11.09-.33.16-.65l.83-3.75c.07-.32.11-.59.11-.78,0-.15-.04-.26-.11-.32-.08-.06-.2-.1-.36-.1l.05-.24h4.49Z"/>
  </g>
  <g class="cls-3">
    <path d="M428.49,63.09c-.12.17-.24.31-.36.43-.11.12-.23.22-.34.3-.11.08-.23.13-.34.17-.11.04-.23.05-.36.05-.28,0-.5-.1-.66-.31-.16-.2-.23-.5-.23-.89,0-.23.02-.45.07-.67.05-.21.12-.41.21-.6.09-.19.2-.36.32-.51.12-.15.26-.29.41-.4.15-.11.31-.2.47-.26.17-.06.34-.09.52-.09.19,0,.36.02.5.07.14.04.28.1.4.18l.35-.25.29.08-.54,2.35c-.03.13-.05.24-.06.33-.01.09-.02.16-.02.23,0,.09.02.16.06.2.04.04.09.06.16.06.04,0,.09,0,.13-.03.04-.02.09-.04.14-.08.05-.04.1-.08.16-.14.06-.06.12-.12.2-.2.04.04.08.08.12.12.04.04.08.08.12.12-.12.12-.23.23-.33.31-.1.09-.19.16-.29.22-.09.06-.18.1-.27.12-.09.03-.18.04-.28.04-.17,0-.31-.06-.4-.17-.1-.11-.14-.26-.14-.46,0-.11.02-.21.05-.31l-.05-.02ZM428.72,61.95c.03-.15.06-.28.08-.4.02-.12.03-.23.03-.34,0-.19-.04-.33-.13-.41-.09-.08-.23-.12-.42-.12-.14,0-.27.03-.39.09-.12.06-.23.15-.33.25-.1.11-.19.23-.27.37-.08.14-.14.29-.2.45-.05.16-.09.32-.12.49-.03.17-.04.33-.04.48,0,.26.04.45.11.58.07.13.19.19.35.19.08,0,.16-.01.23-.04.08-.03.15-.07.24-.14.21-.16.39-.37.54-.6.15-.24.26-.52.33-.84Z"/>
  </g>
  <g class="cls-89">
    <text class="cls-42" transform="translate(427.9 79.97)"><tspan x="0" y="0">̅</tspan></text>
  </g>
  <g class="cls-66">
    <path d="M426.89,78.6l-.3,1.37h-3.52l-.09-.24,2.66-3.06c.38-.43.65-.74.83-.92l-.03-.03h-1.14c-.17,0-.29.01-.37.03-.08.02-.16.06-.23.12-.08.06-.16.14-.25.25-.09.11-.19.27-.3.48h-.43l.29-1.28h3.46l.09.24-2.32,2.67c-.45.52-.84.95-1.17,1.31l.03.03h1.1c.19,0,.34-.01.45-.03.1-.02.19-.06.27-.12.08-.06.16-.15.24-.27.08-.12.19-.3.31-.56h.43Z"/>
  </g>
  <g class="cls-71">
    <text class="cls-42" transform="translate(427.54 97.99)"><tspan x="0" y="0">̅</tspan></text>
  </g>
  <g class="cls-40">
    <path d="M424.83,97.34c.34-.37.63-.73.87-1.07.24-.34.44-.71.59-1.1.15-.39.23-.77.23-1.16,0-.15-.01-.29-.03-.43l.05-.24h.97c-.07.72-.29,1.4-.65,2.03-.36.64-1.03,1.52-2.03,2.66h-.71c-.03-.84-.06-1.64-.1-2.39-.04-.61-.07-1.03-.1-1.25-.04-.24-.09-.41-.17-.49-.05-.06-.13-.08-.22-.08-.08,0-.16.03-.26.09-.09.06-.2.16-.33.29l-.27-.27c.22-.2.39-.34.51-.42.12-.08.23-.14.34-.18.11-.04.24-.06.36-.06.19,0,.34.03.44.1.11.06.19.16.26.3.06.13.11.32.14.56.03.24.05.62.07,1.16.02.53.03,1.19.03,1.96Z"/>
  </g>
  <g class="cls-45">
    <path class="cls-17" d="M166.44,105.48v2.76h-11.52v2.76-2.76h-11.52v-2.76"/>
  </g>
  <g class="cls-106">
    <path class="cls-17" d="M207.24,105.48v2.76h-11.52v2.76-2.76h-11.52v-2.76"/>
  </g>
  <polygon class="cls-90" points="228.6 55.38 237.78 55.38 237.78 46.92 246.96 63.84 237.78 80.76 237.78 72.3 228.6 72.3 228.6 55.38"/>
  <g class="cls-64">
    <g class="cls-65">
      <path class="cls-104" d="M17.72,13.35c0,3.39-2.74,6.13-6.12,6.13s-6.12-2.74-6.12-6.13,2.74-6.12,6.12-6.12,6.12,2.74,6.12,6.12Z"/>
      <path class="cls-24" d="M16.75,11.11l.08.18-1.31-1.97.15.15-1.97-1.31.19.08-2.36-.46h.2l-2.36.46.19-.08-1.97,1.31.15-.15-1.31,1.97.08-.18-.46,2.36v-.2l.46,2.36-.08-.19,1.31,1.97-.15-.15,1.97,1.31-.19-.08,2.36.46h-.2l2.36-.46-.19.08,1.97-1.31-.15.15,1.31-1.97-.08.19.46-2.36v.2l-.46-2.36ZM18.26,13.37l-.5,2.56-1.43,2.14-2.14,1.44-2.57.5-2.57-.5-2.15-1.44-1.43-2.14-.5-2.56.5-2.56,1.43-2.14,2.15-1.44,2.57-.5,2.57.5,2.14,1.44,1.43,2.14.5,2.56Z"/>
      <path class="cls-104" d="M44.6,13.35c0,3.39-2.74,6.13-6.12,6.13s-6.12-2.74-6.12-6.13,2.74-6.12,6.12-6.12,6.12,2.74,6.12,6.12Z"/>
      <path class="cls-24" d="M43.67,11.11l.08.18-1.31-1.97.15.15-1.97-1.31.19.08-2.43-.46h.2l-2.36.46.19-.08-1.97,1.31.15-.15-1.31,1.97.08-.18-.46,2.36v-.2l.46,2.36-.08-.19,1.31,1.97-.15-.15,1.97,1.31-.19-.08,2.36.46h-.2l2.43-.46-.19.08,1.97-1.31-.15.15,1.31-1.97-.08.19.46-2.36v.2l-.46-2.36ZM45.18,13.37l-.5,2.56-1.43,2.14-2.15,1.44-2.63.5-2.57-.5-2.14-1.44-1.43-2.14-.5-2.56.5-2.56,1.43-2.14,2.14-1.44,2.57-.5,2.63.5,2.15,1.44,1.43,2.14.5,2.56Z"/>
      <path class="cls-104" d="M71.48,13.35c0,3.39-2.74,6.13-6.12,6.13s-6.12-2.74-6.12-6.13,2.74-6.12,6.12-6.12,6.12,2.74,6.12,6.12Z"/>
      <path class="cls-24" d="M70.53,11.11l.08.18-1.31-1.97.15.15-1.97-1.31.19.08-2.36-.46h.2l-2.36.46.19-.08-1.97,1.31.15-.15-1.31,1.97.08-.18-.46,2.36v-.2l.46,2.36-.08-.19,1.31,1.97-.15-.15,1.97,1.31-.19-.08,2.36.46h-.2l2.36-.46-.19.08,1.97-1.31-.15.15,1.31-1.97-.08.19.46-2.36v.2l-.46-2.36ZM72.04,13.37l-.5,2.56-1.43,2.14-2.14,1.44-2.57.5-2.57-.5-2.14-1.44-1.43-2.14-.5-2.56.5-2.56,1.43-2.14,2.14-1.44,2.57-.5,2.57.5,2.14,1.44,1.43,2.14.5,2.56Z"/>
      <path class="cls-104" d="M98.36,13.35c0,3.39-2.74,6.13-6.13,6.13s-6.12-2.74-6.12-6.13,2.74-6.12,6.12-6.12,6.13,2.74,6.13,6.12Z"/>
      <path class="cls-24" d="M97.39,11.11l.08.18-1.31-1.97.14.15-1.97-1.31.19.08-2.36-.46h.2l-2.36.46.19-.08-1.97,1.31.15-.15-1.31,1.97.08-.18-.46,2.36v-.2l.46,2.36-.08-.19,1.31,1.97-.15-.15,1.97,1.31-.19-.08,2.36.46h-.2l2.36-.46-.19.08,1.97-1.31-.14.15,1.31-1.97-.08.19.46-2.36v.2l-.46-2.36ZM98.89,13.37l-.5,2.56-1.43,2.14-2.14,1.44-2.57.5-2.56-.5-2.14-1.44-1.43-2.14-.5-2.56.5-2.56,1.43-2.14,2.14-1.44,2.56-.5,2.57.5,2.14,1.44,1.43,2.14.5,2.56Z"/>
      <path class="cls-104" d="M125.23,13.35c0,3.39-2.74,6.13-6.13,6.13s-6.12-2.74-6.12-6.13,2.74-6.12,6.12-6.12,6.13,2.74,6.13,6.12Z"/>
      <g class="cls-27">
        <path class="cls-24" d="M124.31,11.11l.08.18-1.31-1.97.14.15-1.97-1.31.19.08-2.43-.46h.19l-2.36.46.19-.08-1.97,1.31.15-.15-1.31,1.97.08-.18-.46,2.36v-.2l.46,2.36-.08-.19,1.31,1.97-.15-.15,1.97,1.31-.19-.08,2.36.46h-.19l2.43-.46-.19.08,1.97-1.31-.14.15,1.31-1.97-.08.19.46-2.36v.2l-.46-2.36ZM125.81,13.37l-.5,2.56-1.43,2.14-2.14,1.44-2.64.5-2.57-.5-2.14-1.44-1.44-2.14-.5-2.56.5-2.56,1.44-2.14,2.14-1.44,2.57-.5,2.64.5,2.14,1.44,1.43,2.14.5,2.56Z"/>
      </g>
      <path class="cls-52" d="M32.34,39.08c0,3.38-2.74,6.12-6.12,6.12s-6.12-2.74-6.12-6.12,2.74-6.13,6.12-6.13,6.12,2.75,6.12,6.13Z"/>
      <path class="cls-24" d="M31.39,36.85l.08.19-1.31-1.97.15.15-1.97-1.31.19.08-2.36-.46h.2l-2.43.46.2-.08-1.9,1.31.13-.13-1.38,1.97.09-.2-.46,2.36v-.2l.46,2.36-.09-.2,1.38,1.97-.13-.13,1.9,1.31-.2-.08,2.43.46h-.2s2.36-.46,2.36-.46l-.19.08,1.97-1.31-.15.15,1.31-1.97-.08.19.46-2.36v.2l-.46-2.36ZM32.9,39.11l-.5,2.57-1.43,2.15-2.14,1.43-2.57.5-2.64-.5-2.07-1.43-1.5-2.14-.5-2.57.5-2.57,1.5-2.14,2.07-1.44,2.64-.5,2.57.5,2.14,1.44,1.43,2.14.5,2.57Z"/>
      <path class="cls-52" d="M86.1,39.08c0,3.38-2.74,6.12-6.12,6.12s-6.12-2.74-6.12-6.12,2.74-6.13,6.12-6.13,6.12,2.75,6.12,6.13Z"/>
      <path class="cls-24" d="M85.17,36.85l.08.19-1.31-1.97.15.15-1.97-1.31.19.08-2.43-.46h.2l-2.36.46.19-.08-1.97,1.31.15-.15-1.31,1.97.08-.19-.46,2.36v-.2l.46,2.36-.08-.19,1.31,1.97-.15-.15,1.97,1.31-.19-.08,2.36.46h-.2s2.43-.46,2.43-.46l-.19.08,1.97-1.31-.15.15,1.31-1.97-.08.19.46-2.36v.2l-.46-2.36ZM86.68,39.11l-.5,2.57-1.43,2.15-2.15,1.43-2.63.5-2.57-.5-2.14-1.43-1.43-2.15-.5-2.57.5-2.57,1.43-2.14,2.14-1.44,2.57-.5,2.63.5,2.15,1.44,1.43,2.14.5,2.57Z"/>
      <path class="cls-52" d="M112.98,39.08c0,3.38-2.74,6.12-6.13,6.12s-6.12-2.74-6.12-6.12,2.74-6.13,6.12-6.13,6.13,2.75,6.13,6.13Z"/>
      <path class="cls-24" d="M112.02,36.85l.08.19-1.31-1.97.15.15-1.97-1.31.19.08-2.36-.46h.19l-2.36.46.19-.08-1.97,1.31.15-.15-1.31,1.97.08-.19-.46,2.36v-.2l.46,2.36-.08-.19,1.31,1.97-.15-.15,1.97,1.31-.19-.08,2.36.46h-.19l2.36-.46-.19.08,1.97-1.31-.15.15,1.31-1.97-.08.19.46-2.36v.2l-.46-2.36ZM113.54,39.11l-.5,2.57-1.44,2.15-2.14,1.43-2.57.5-2.57-.5-2.14-1.43-1.44-2.15-.5-2.57.5-2.57,1.44-2.14,2.14-1.44,2.57-.5,2.57.5,2.14,1.44,1.44,2.14.5,2.57Z"/>
      <path class="cls-104" d="M17.72,64.8c0,3.38-2.74,6.12-6.12,6.12s-6.12-2.74-6.12-6.12,2.74-6.12,6.12-6.12,6.12,2.74,6.12,6.12Z"/>
      <path class="cls-24" d="M16.75,62.58l.08.19-1.31-1.97.15.15-1.97-1.31.19.08-2.36-.46h.2l-2.36.46.19-.08-1.97,1.31.15-.15-1.31,1.97.08-.19-.46,2.36v-.2l.46,2.36-.08-.19,1.31,1.97-.15-.15,1.97,1.31-.19-.08,2.36.46h-.2l2.36-.46-.19.08,1.97-1.31-.15.15,1.31-1.97-.08.19.46-2.36v.2l-.46-2.36ZM18.26,64.85l-.5,2.57-1.43,2.15-2.14,1.43-2.57.5-2.57-.5-2.15-1.43-1.43-2.15-.5-2.57.5-2.57,1.43-2.14,2.15-1.43,2.57-.5,2.57.5,2.14,1.43,1.43,2.14.5,2.57Z"/>
      <path class="cls-104" d="M44.6,64.8c0,3.38-2.74,6.12-6.12,6.12s-6.12-2.74-6.12-6.12,2.74-6.12,6.12-6.12,6.12,2.74,6.12,6.12Z"/>
      <path class="cls-24" d="M43.67,62.58l.08.19-1.31-1.97.15.15-1.97-1.31.19.08-2.43-.46h.2s-2.36.46-2.36.46l.19-.08-1.97,1.31.15-.15-1.31,1.97.08-.19-.46,2.36v-.2l.46,2.36-.08-.19,1.31,1.97-.15-.15,1.97,1.31-.19-.08,2.36.46h-.2s2.43-.46,2.43-.46l-.19.08,1.97-1.31-.15.15,1.31-1.97-.08.19.46-2.36v.2l-.46-2.36ZM45.18,64.85l-.5,2.57-1.43,2.15-2.15,1.43-2.63.5-2.57-.5-2.14-1.43-1.43-2.15-.5-2.57.5-2.57,1.43-2.14,2.14-1.43,2.57-.5,2.63.5,2.15,1.43,1.43,2.14.5,2.57Z"/>
      <path class="cls-104" d="M71.48,64.8c0,3.38-2.74,6.12-6.12,6.12s-6.12-2.74-6.12-6.12,2.74-6.12,6.12-6.12,6.12,2.74,6.12,6.12Z"/>
      <path class="cls-24" d="M70.53,62.58l.08.19-1.31-1.97.15.15-1.97-1.31.19.08-2.36-.46h.2l-2.36.46.19-.08-1.97,1.31.15-.15-1.31,1.97.08-.19-.46,2.36v-.2l.46,2.36-.08-.19,1.31,1.97-.15-.15,1.97,1.31-.19-.08,2.36.46h-.2l2.36-.46-.19.08,1.97-1.31-.15.15,1.31-1.97-.08.19.46-2.36v.2l-.46-2.36ZM72.04,64.85l-.5,2.57-1.43,2.15-2.14,1.43-2.57.5-2.57-.5-2.14-1.43-1.43-2.15-.5-2.57.5-2.57,1.43-2.14,2.14-1.43,2.57-.5,2.57.5,2.14,1.43,1.43,2.14.5,2.57Z"/>
      <path class="cls-104" d="M125.23,64.8c0,3.38-2.74,6.12-6.13,6.12s-6.12-2.74-6.12-6.12,2.74-6.12,6.12-6.12,6.13,2.74,6.13,6.12Z"/>
      <g class="cls-59">
        <path class="cls-24" d="M124.31,62.58l.08.19-1.31-1.97.14.15-1.97-1.31.19.08-2.43-.46h.19s-2.36.46-2.36.46l.19-.08-1.97,1.31.15-.15-1.31,1.97.08-.19-.46,2.36v-.2l.46,2.36-.08-.19,1.31,1.97-.15-.15,1.97,1.31-.19-.08,2.36.46h-.19s2.43-.46,2.43-.46l-.19.08,1.97-1.31-.14.15,1.31-1.97-.08.19.46-2.36v.2l-.46-2.36ZM125.81,64.85l-.5,2.57-1.43,2.15-2.14,1.43-2.64.5-2.57-.5-2.14-1.43-1.44-2.15-.5-2.57.5-2.57,1.44-2.14,2.14-1.43,2.57-.5,2.64.5,2.14,1.43,1.43,2.14.5,2.57Z"/>
      </g>
      <path class="cls-52" d="M32.34,90.52c0,3.38-2.74,6.12-6.12,6.12s-6.12-2.74-6.12-6.12,2.74-6.12,6.12-6.12,6.12,2.74,6.12,6.12Z"/>
      <path class="cls-24" d="M31.39,88.25l.08.2-1.31-1.9.13.13-1.97-1.38.2.09-2.36-.46h.2s-2.43.46-2.43.46l.21-.09-1.9,1.38.12-.12-1.38,1.9.09-.21-.46,2.43v-.2l.46,2.36-.09-.2,1.38,1.97-.13-.13,1.9,1.31-.2-.08,2.43.46h-.2s2.36-.46,2.36-.46l-.19.08,1.97-1.31-.15.15,1.31-1.97-.08.19.46-2.36v.2l-.46-2.43ZM32.9,90.58l-.5,2.57-1.43,2.15-2.14,1.43-2.57.5-2.64-.5-2.07-1.43-1.5-2.14-.5-2.57.5-2.64,1.5-2.07,2.07-1.5,2.64-.5,2.57.5,2.14,1.5,1.43,2.07.5,2.64Z"/>
      <circle class="cls-52" cx="53.09" cy="90.52" r="6.12"/>
      <path class="cls-24" d="M58.25,88.25l.08.2-1.31-1.9.13.13-1.97-1.38.2.09-2.36-.46h.2l-2.36.46.2-.09-1.97,1.38.13-.13-1.31,1.9.08-.2-.46,2.43v-.2l.46,2.36-.08-.19,1.31,1.97-.15-.15,1.97,1.31-.19-.08,2.36.46h-.2l2.36-.46-.19.08,1.97-1.31-.15.15,1.31-1.97-.08.19.46-2.36v.2l-.46-2.43ZM59.76,90.58l-.5,2.57-1.43,2.15-2.14,1.43-2.57.5-2.57-.5-2.14-1.43-1.43-2.15-.5-2.57.5-2.64,1.43-2.07,2.14-1.5,2.57-.5,2.57.5,2.14,1.5,1.43,2.07.5,2.64Z"/>
      <path class="cls-52" d="M86.1,90.52c0,3.38-2.74,6.12-6.12,6.12s-6.12-2.74-6.12-6.12,2.74-6.12,6.12-6.12,6.12,2.74,6.12,6.12Z"/>
      <path class="cls-24" d="M85.17,88.25l.08.2-1.31-1.9.13.13-1.97-1.38.2.09-2.43-.46h.2s-2.36.46-2.36.46l.2-.09-1.97,1.38.13-.13-1.31,1.9.08-.2-.46,2.43v-.2s.46,2.36.46,2.36l-.08-.19,1.31,1.97-.15-.15,1.97,1.31-.19-.08,2.36.46h-.2s2.43-.46,2.43-.46l-.19.08,1.97-1.31-.15.15,1.31-1.97-.08.19.46-2.36v.2l-.46-2.43ZM86.68,90.58l-.5,2.57-1.43,2.15-2.15,1.43-2.63.5-2.57-.5-2.14-1.43-1.43-2.15-.5-2.57.5-2.64,1.43-2.07,2.14-1.5,2.57-.5,2.64.5,2.14,1.5,1.43,2.07.5,2.64Z"/>
      <path class="cls-52" d="M112.98,90.52c0,3.38-2.74,6.12-6.13,6.12s-6.12-2.74-6.12-6.12,2.74-6.12,6.12-6.12,6.13,2.74,6.13,6.12Z"/>
      <path class="cls-24" d="M112.02,88.25l.09.2-1.31-1.9.13.13-1.97-1.38.2.09-2.36-.46h.19l-2.36.46.2-.09-1.97,1.38.13-.13-1.31,1.9.09-.2-.46,2.43v-.2s.46,2.36.46,2.36l-.08-.19,1.31,1.97-.15-.15,1.97,1.31-.19-.08,2.36.46h-.19l2.36-.46-.19.08,1.97-1.31-.15.15,1.31-1.97-.08.19.46-2.36v.2s-.46-2.43-.46-2.43ZM113.54,90.58l-.5,2.57-1.44,2.15-2.14,1.43-2.57.5-2.57-.5-2.14-1.43-1.44-2.15-.5-2.57.5-2.64,1.44-2.07,2.14-1.5,2.57-.5,2.57.5,2.14,1.5,1.44,2.07.5,2.64Z"/>
      <path class="cls-104" d="M17.72,116.25c0,3.38-2.74,6.12-6.12,6.12s-6.12-2.74-6.12-6.12,2.74-6.12,6.12-6.12,6.12,2.74,6.12,6.12Z"/>
      <path class="cls-24" d="M16.75,113.99l.08.2-1.31-1.9.13.13-1.97-1.38.2.09-2.36-.46h.2l-2.36.46.2-.09-1.97,1.38.13-.13-1.31,1.9.08-.2-.46,2.43v-.2s.46,2.36.46,2.36l-.08-.19,1.31,1.97-.15-.15,1.97,1.31-.19-.08,2.36.46h-.2l2.36-.46-.19.08,1.97-1.31-.15.15,1.31-1.97-.08.19.46-2.36v.2l-.46-2.43ZM18.26,116.32l-.5,2.57-1.43,2.14-2.14,1.43-2.57.5-2.57-.5-2.15-1.43-1.43-2.14-.5-2.57.5-2.64,1.43-2.07,2.14-1.5,2.57-.5,2.57.5,2.14,1.5,1.43,2.07.5,2.64Z"/>
      <path class="cls-104" d="M44.6,116.25c0,3.38-2.74,6.12-6.12,6.12s-6.12-2.74-6.12-6.12,2.74-6.12,6.12-6.12,6.12,2.74,6.12,6.12Z"/>
      <path class="cls-24" d="M43.67,113.99l.08.2-1.31-1.9.13.13-1.97-1.38.2.09-2.43-.46h.2s-2.36.46-2.36.46l.2-.09-1.97,1.38.13-.13-1.31,1.9.08-.2-.46,2.43v-.2l.46,2.36-.08-.19,1.31,1.97-.15-.15,1.97,1.31-.19-.08,2.36.46h-.2s2.43-.46,2.43-.46l-.19.08,1.97-1.31-.15.15,1.31-1.97-.08.19.46-2.36v.2l-.46-2.43ZM45.18,116.32l-.5,2.57-1.43,2.14-2.15,1.43-2.63.5-2.57-.5-2.14-1.43-1.43-2.14-.5-2.57.5-2.64,1.43-2.07,2.14-1.5,2.57-.5,2.64.5,2.14,1.5,1.43,2.07.5,2.64Z"/>
      <path class="cls-104" d="M71.48,116.25c0,3.38-2.74,6.12-6.12,6.12s-6.12-2.74-6.12-6.12,2.74-6.12,6.12-6.12,6.12,2.74,6.12,6.12Z"/>
      <path class="cls-24" d="M70.53,113.99l.08.2-1.31-1.9.13.13-1.97-1.38.2.09-2.36-.46h.2l-2.36.46.2-.09-1.97,1.38.13-.13-1.31,1.9.08-.2-.46,2.43v-.2l.46,2.36-.08-.19,1.31,1.97-.15-.15,1.97,1.31-.19-.08,2.36.46h-.2l2.36-.46-.19.08,1.97-1.31-.15.15,1.31-1.97-.08.19.46-2.36v.2l-.46-2.43ZM72.04,116.32l-.5,2.57-1.43,2.14-2.14,1.43-2.57.5-2.57-.5-2.14-1.43-1.43-2.14-.5-2.57.5-2.64,1.43-2.07,2.14-1.5,2.57-.5,2.57.5,2.14,1.5,1.43,2.07.5,2.64Z"/>
      <path class="cls-104" d="M98.36,116.25c0,3.38-2.74,6.12-6.13,6.12s-6.12-2.74-6.12-6.12,2.74-6.12,6.12-6.12,6.13,2.74,6.13,6.12Z"/>
      <path class="cls-24" d="M97.38,113.99l.09.2-1.31-1.9.13.13-1.97-1.38.2.09-2.36-.46h.2l-2.36.46.2-.09-1.97,1.38.13-.13-1.31,1.9.08-.2-.46,2.43v-.2s.46,2.36.46,2.36l-.08-.19,1.31,1.97-.15-.15,1.97,1.31-.19-.08,2.36.46h-.2l2.36-.46-.19.08,1.97-1.31-.14.15,1.31-1.97-.08.19.46-2.36v.2l-.46-2.43ZM98.89,116.32l-.5,2.57-1.43,2.14-2.14,1.43-2.57.5-2.56-.5-2.14-1.43-1.43-2.14-.5-2.57.5-2.64,1.43-2.07,2.14-1.5,2.57-.5,2.57.5,2.14,1.5,1.43,2.07.5,2.64Z"/>
      <path class="cls-104" d="M125.23,116.25c0,3.38-2.74,6.12-6.13,6.12s-6.12-2.74-6.12-6.12,2.74-6.12,6.12-6.12,6.13,2.74,6.13,6.12Z"/>
      <g class="cls-98">
        <path class="cls-24" d="M124.3,113.99l.09.2-1.31-1.9.13.13-1.97-1.38.2.09-2.43-.46h.19s-2.36.46-2.36.46l.2-.09-1.97,1.38.13-.13-1.31,1.9.09-.2-.46,2.43v-.2s.46,2.36.46,2.36l-.08-.19,1.31,1.97-.15-.15,1.97,1.31-.19-.08,2.36.46h-.19s2.43-.46,2.43-.46l-.19.08,1.97-1.31-.14.15,1.31-1.97-.08.19.46-2.36v.2l-.46-2.43ZM125.81,116.32l-.5,2.57-1.43,2.14-2.14,1.43-2.64.5-2.57-.5-2.14-1.43-1.44-2.14-.5-2.57.5-2.64,1.44-2.07,2.14-1.5,2.57-.5,2.64.5,2.14,1.5,1.43,2.07.5,2.64Z"/>
      </g>
      <line class="cls-15" x1="53.09" y1="39.08" x2="38.95" y2="14.19"/>
      <polygon class="cls-32" points="43.53 14.95 43.26 15.79 39.11 14.48 38.12 18.71 37.25 18.5 38.47 13.35 43.53 14.95"/>
      <line class="cls-15" x1="64.94" y1="14.22" x2="53.09" y2="39.08"/>
      <polygon class="cls-32" points="60.43 15.31 60.75 16.12 64.8 14.53 66.1 18.68 66.94 18.42 65.35 13.35 60.43 15.31"/>
      <line class="cls-15" x1="64.94" y1="63.94" x2="53.09" y2="39.08"/>
      <polygon class="cls-32" points="66.94 59.75 66.1 59.49 64.8 63.64 60.75 62.03 60.43 62.85 65.35 64.8 66.94 59.75"/>
      <line class="cls-15" x1="38.95" y1="63.97" x2="53.09" y2="39.08"/>
      <polygon class="cls-32" points="43.53 63.22 43.26 62.37 39.11 63.68 38.12 59.45 37.25 59.65 38.47 64.8 43.53 63.22"/>
      <line class="cls-10" x1="27.17" y1="39.08" x2="53.09" y2="39.08"/>
      <polygon class="cls-97" points="30.1 42.68 30.7 42.04 27.52 39.08 30.7 36.12 30.1 35.47 26.21 39.08 30.1 42.68"/>
      <line class="cls-10" x1="79.02" y1="39.08" x2="53.09" y2="39.08"/>
      <polygon class="cls-97" points="76.09 35.47 75.49 36.12 78.68 39.08 75.49 42.04 76.09 42.68 79.97 39.08 76.09 35.47"/>
      <path class="cls-97" d="M91.68,65.08l-.45-.95c-.15-.31-.02-.69.3-.84.31-.15.69-.02.84.3l.46.95c.15.31.02.69-.3.84-.32.15-.69.02-.84-.3Z"/>
      <path class="cls-97" d="M81.98,44.74l-.84-1.76,1.14-.54.84,1.76-1.14.54ZM83.66,48.26l-.84-1.76,1.14-.54.84,1.76-1.14.54ZM85.34,51.79l-.84-1.76,1.14-.54.84,1.76-1.14.54ZM87.02,55.32l-.84-1.76,1.14-.54.84,1.76-1.14.54ZM88.7,58.85l-.84-1.76,1.14-.54.84,1.76-1.14.54ZM90.39,62.37l-.84-1.76,1.14-.54.84,1.76c.15.31.02.69-.3.84-.31.15-.69.02-.84-.3Z"/>
      <path class="cls-97" d="M80.28,41.17l-.45-.95c-.15-.31-.02-.69.3-.84.31-.15.69-.02.84.3l.45.95c.15.31.02.69-.3.84-.31.15-.69.02-.84-.3Z"/>
      <polygon class="cls-97" points="84.9 41.03 84.57 41.85 80.53 40.25 79.23 44.4 78.39 44.13 79.97 39.08 84.9 41.03"/>
      <path class="cls-97" d="M106.95,40.23l-.53.91c-.18.3-.56.41-.87.23-.3-.17-.4-.56-.23-.86l.53-.91c.18-.3.56-.41.86-.23.31.17.41.56.24.86Z"/>
      <path class="cls-97" d="M95.35,60.64l-1.01,1.77-1.1-.62,1.01-1.77,1.1.62ZM97.36,57.09l-1.01,1.77-1.1-.62,1.01-1.77,1.1.62ZM99.37,53.55l-1.01,1.77-1.1-.62,1.01-1.77,1.1.62ZM101.39,50l-1.01,1.77-1.1-.62,1.01-1.77,1.1.62ZM103.4,46.46l-1.01,1.77-1.09-.62,1.01-1.77,1.09.62ZM105.41,42.92l-1.01,1.77-1.09-.62,1.01-1.77c.17-.3.55-.41.86-.24.3.17.4.56.24.86Z"/>
      <path class="cls-97" d="M93.31,64.21l-.51.91c-.18.3-.56.41-.86.24-.31-.17-.41-.55-.24-.86l.51-.91c.18-.3.55-.41.86-.24.31.17.41.56.24.86Z"/>
      <polygon class="cls-97" points="101.79 40.67 102.06 41.51 106.21 40.21 107.21 44.44 108.08 44.24 106.85 39.08 101.79 40.67"/>
      <path class="cls-97" d="M79.83,89.4l.45-.95c.15-.31.53-.45.84-.3.31.15.45.53.3.84l-.45.95c-.15.31-.53.45-.84.3-.31-.15-.45-.53-.3-.84Z"/>
      <path class="cls-97" d="M89.52,69.06l.84-1.76,1.14.54-.84,1.76-1.14-.54ZM87.84,72.58l.84-1.76,1.14.54-.84,1.76-1.14-.54ZM86.16,76.11l.84-1.76,1.14.54-.84,1.76-1.14-.54ZM84.48,79.64l.84-1.76,1.14.54-.84,1.76-1.14-.54ZM82.8,83.17l.84-1.76,1.14.54-.84,1.76-1.14-.54ZM81.12,86.7l.84-1.76,1.14.54-.84,1.76c-.15.31-.53.45-.84.3-.31-.15-.45-.53-.3-.84Z"/>
      <path class="cls-97" d="M91.23,65.49l.45-.95c.15-.31.53-.45.84-.3.32.15.45.53.3.84l-.46.95c-.15.31-.53.45-.84.3-.31-.15-.45-.53-.3-.84Z"/>
      <polygon class="cls-97" points="84.9 88.58 84.57 87.76 80.53 89.36 79.23 85.21 78.39 85.47 79.97 90.53 84.9 88.58"/>
      <path class="cls-97" d="M105.85,90.02l-.53-.91c-.18-.3-.07-.69.23-.86.31-.17.69-.07.87.23l.53.91c.18.3.07.69-.24.86-.3.17-.68.07-.86-.23Z"/>
      <path class="cls-97" d="M94.24,69.61l-1.01-1.77,1.09-.62,1.01,1.77-1.09.62ZM96.26,73.16l-1.01-1.77,1.09-.62,1.01,1.77-1.09.62ZM98.27,76.7l-1.01-1.77,1.09-.62,1.01,1.77-1.09.62ZM100.28,80.24l-1.01-1.77,1.09-.62,1.02,1.77-1.1.62ZM102.3,83.79l-1.01-1.77,1.1-.62,1.01,1.77-1.1.62ZM104.32,87.33l-1.02-1.77,1.1-.62,1.01,1.77c.17.3.06.69-.24.86-.31.17-.69.07-.86-.24Z"/>
      <path class="cls-97" d="M92.21,66.04l-.51-.91c-.17-.3-.06-.69.24-.86.3-.17.68-.06.86.24l.51.91c.18.3.07.69-.24.86-.31.17-.68.06-.86-.24Z"/>
      <polygon class="cls-97" points="108.08 85.38 107.21 85.17 106.21 89.4 102.06 88.1 101.79 88.94 106.85 90.52 108.08 85.38"/>
      <line class="cls-11" x1="118.14" y1="64.8" x2="92.23" y2="64.8"/>
      <polygon class="cls-32" points="115.23 61.2 114.62 61.84 117.81 64.8 114.62 67.76 115.23 68.42 119.1 64.8 115.23 61.2"/>
      <line class="cls-11" x1="66.31" y1="64.8" x2="92.23" y2="64.8"/>
      <polygon class="cls-32" points="69.23 68.42 69.84 67.76 66.64 64.8 69.84 61.84 69.23 61.2 65.35 64.8 69.23 68.42"/>
      <path class="cls-104" d="M98.36,64.8c0,3.38-2.74,6.12-6.13,6.12s-6.12-2.74-6.12-6.12,2.74-6.12,6.12-6.12,6.13,2.74,6.13,6.12Z"/>
      <path class="cls-24" d="M97.39,62.58l.08.19-1.31-1.97.14.15-1.97-1.31.19.08-2.36-.46h.2l-2.36.46.19-.08-1.97,1.31.15-.15-1.31,1.97.08-.19-.46,2.36v-.2l.46,2.36-.08-.19,1.31,1.97-.15-.15,1.97,1.31-.19-.08,2.36.46h-.2l2.36-.46-.19.08,1.97-1.31-.14.15,1.31-1.97-.08.19.46-2.36v.2l-.46-2.36ZM98.89,64.85l-.5,2.57-1.43,2.15-2.14,1.43-2.57.5-2.56-.5-2.14-1.43-1.43-2.15-.5-2.57.5-2.57,1.43-2.14,2.14-1.43,2.56-.5,2.57.5,2.14,1.43,1.43,2.14.5,2.57Z"/>
      <path class="cls-52" d="M59.22,39.08c0,3.38-2.74,6.12-6.12,6.12s-6.12-2.74-6.12-6.12,2.74-6.13,6.12-6.13,6.12,2.75,6.12,6.13Z"/>
      <path class="cls-24" d="M58.25,36.85l.08.19-1.31-1.97.15.15-1.97-1.31.19.08-2.36-.46h.2l-2.36.46.19-.08-1.97,1.31.15-.15-1.31,1.97.08-.19-.46,2.36v-.2l.46,2.36-.08-.19,1.31,1.97-.15-.15,1.97,1.31-.19-.08,2.36.46h-.2l2.36-.46-.19.08,1.97-1.31-.15.15,1.31-1.97-.08.19.46-2.36v.2l-.46-2.36ZM59.76,39.11l-.5,2.57-1.43,2.15-2.14,1.43-2.57.5-2.57-.5-2.14-1.43-1.43-2.15-.5-2.57.5-2.57,1.43-2.14,2.14-1.44,2.57-.5,2.57.5,2.14,1.44,1.43,2.14.5,2.57Z"/>
    </g>
  </g>
  <g class="cls-77">
    <text class="cls-34" transform="translate(141.46 123.36)"><tspan class="cls-74" x="0" y="0">S</tspan><tspan x="5.41" y="0">ite1</tspan></text>
  </g>
  <g class="cls-1">
    <text class="cls-34" transform="translate(182.45 123.36)"><tspan class="cls-74" x="0" y="0">S</tspan><tspan x="5.41" y="0">ite2</tspan></text>
  </g>
  <g class="cls-70">
    <g class="cls-88">
      <path class="cls-51" d="M170.85,119.72c0,2.13-1.72,3.85-3.85,3.85s-3.85-1.72-3.85-3.85,1.72-3.85,3.85-3.85,3.85,1.72,3.85,3.85Z"/>
      <g class="cls-37">
        <path class="cls-24" d="M170.24,118.32l.05.12-.84-1.25.09.09-1.21-.8.11.05-1.49-.32h.14l-1.49.32.11-.05-1.25.8.1-.1-.8,1.25.05-.11-.32,1.49v-.14l.32,1.49-.05-.11.8,1.21-.09-.09,1.25.84-.12-.05,1.49.28h-.12l1.49-.28-.13.05,1.21-.84-.08.08.84-1.21-.05.13.28-1.49v.12l-.28-1.49ZM171.19,119.75l-.31,1.62-.92,1.31-1.31.92-1.62.31-1.62-.31-1.36-.92-.88-1.31-.35-1.62.35-1.62.88-1.36,1.36-.88,1.62-.35,1.62.35,1.31.88.92,1.36.31,1.62Z"/>
      </g>
    </g>
  </g>
  <g class="cls-86">
    <g class="cls-62">
      <path class="cls-104" d="M212.25,119.24c0,2.13-1.72,3.85-3.85,3.85s-3.85-1.72-3.85-3.85,1.72-3.85,3.85-3.85,3.85,1.72,3.85,3.85Z"/>
      <g class="cls-55">
        <path class="cls-24" d="M211.64,117.84l.05.12-.84-1.25.09.09-1.21-.8.11.05-1.49-.32h.14l-1.49.32.11-.05-1.25.8.1-.1-.8,1.25.05-.11-.32,1.49v-.14l.32,1.49-.05-.11.8,1.21-.09-.09,1.25.84-.12-.05,1.49.28h-.12l1.49-.28-.13.05,1.21-.84-.08.08.84-1.21-.05.13.28-1.49v.12l-.28-1.49ZM212.59,119.27l-.31,1.62-.92,1.31-1.31.92-1.62.31-1.62-.31-1.36-.92-.88-1.31-.35-1.62.35-1.62.88-1.36,1.36-.88,1.62-.35,1.62.35,1.31.88.92,1.36.31,1.62Z"/>
      </g>
    </g>
  </g>
  <g class="cls-100">
    <g class="cls-43">
      <path class="cls-84" d="M440.37,118.95c0,2.13-1.72,3.85-3.85,3.85s-3.85-1.72-3.85-3.85,1.72-3.85,3.85-3.85,3.85,1.72,3.85,3.85Z"/>
      <g class="cls-53">
        <path class="cls-24" d="M439.76,117.56l.05.12-.85-1.25.09.09-1.21-.8.11.05-1.49-.32h.14l-1.49.32.11-.05-1.25.8.1-.1-.8,1.25.05-.11-.32,1.49v-.14l.32,1.49-.05-.11.8,1.21-.09-.09,1.25.84-.12-.05,1.49.28h-.12l1.49-.28-.13.05,1.21-.84-.08.08.85-1.21-.05.13.28-1.49v.12l-.28-1.49ZM440.71,118.98l-.31,1.62-.92,1.31-1.31.92-1.62.31-1.62-.31-1.36-.92-.88-1.31-.35-1.62.35-1.62.88-1.36,1.36-.88,1.62-.35,1.62.35,1.31.88.92,1.36.31,1.62Z"/>
      </g>
    </g>
  </g>
  <g class="cls-25">
    <text class="cls-34" transform="translate(409.7 122.52)"><tspan x="0" y="0">Site 1</tspan></text>
  </g>
  <g class="cls-46">
    <path class="cls-17" d="M436.68,105.48v2.76h-11.52v2.76-2.76h-11.52v-2.76"/>
  </g>
</svg>